<svg width="1655" height="92" viewBox="0 0 1655 92" fill="none" xmlns="http://www.w3.org/2000/svg">
<path d="M41.8799 81.0078H38.9795V86H37.4238V74.4863H41.5898C42.8555 74.4863 43.8193 74.7646 44.4814 75.3213C45.1436 75.8779 45.4746 76.6924 45.4746 77.7646C45.4746 78.96 44.8711 79.8213 43.6641 80.3486C44.8535 80.7354 45.4482 81.6406 45.4482 83.0645V84.1455C45.4482 84.9307 45.624 85.4844 45.9756 85.8066V86H44.3672C44.0449 85.7129 43.8838 85.0918 43.8838 84.1367V83.082C43.8838 82.4551 43.7021 81.9541 43.3389 81.5791C42.9756 81.1982 42.4893 81.0078 41.8799 81.0078ZM38.9795 75.708V79.7861H41.4316C42.3105 79.7861 42.9434 79.6221 43.3301 79.2939C43.7227 78.96 43.9189 78.4443 43.9189 77.7471C43.9189 76.3877 43.1426 75.708 41.5898 75.708H38.9795ZM53.1211 80.6826C53.1211 80.0381 52.9541 79.5195 52.6201 79.127C52.2861 78.7285 51.8057 78.5293 51.1787 78.5293C50.6631 78.5293 50.2178 78.7461 49.8428 79.1797C49.4736 79.6133 49.2451 80.167 49.1572 80.8408L49.1748 80.8848H53.1211V80.6826ZM51.416 86.1846C50.2266 86.1846 49.2773 85.792 48.5684 85.0068C47.8652 84.2217 47.5137 83.1875 47.5137 81.9043V81.5527C47.5137 80.3516 47.8711 79.3438 48.5859 78.5293C49.3066 77.709 50.1709 77.2988 51.1787 77.2988C52.3154 77.2988 53.1826 77.6416 53.7803 78.3271C54.3838 79.0068 54.6855 79.9414 54.6855 81.1309V82.1064H49.1309L49.1045 82.1416C49.1221 82.9854 49.333 83.668 49.7373 84.1895C50.1475 84.7051 50.707 84.9629 51.416 84.9629C52.4121 84.9629 53.2207 84.6816 53.8418 84.1191L54.457 85.1299H54.4482C53.7334 85.833 52.7227 86.1846 51.416 86.1846ZM59.6338 84.9453C60.1846 84.9453 60.6182 84.8369 60.9346 84.6201C61.251 84.3975 61.4092 84.1045 61.4092 83.7412C61.4092 83.3779 61.2744 83.0908 61.0049 82.8799C60.7354 82.6631 60.2461 82.4727 59.5371 82.3086C58.459 82.0742 57.665 81.7637 57.1553 81.377C56.6514 80.9844 56.3994 80.4453 56.3994 79.7598C56.3994 79.0742 56.6982 78.4912 57.2959 78.0107C57.8936 77.5244 58.6729 77.2812 59.6338 77.2812C60.5947 77.2812 61.3711 77.5361 61.9629 78.0459C62.5605 78.5498 62.8447 79.1768 62.8154 79.9268L62.7979 79.9707H61.3125C61.3125 79.5781 61.1514 79.2383 60.8291 78.9512C60.5127 78.6641 60.0938 78.5205 59.5723 78.5205C59.0566 78.5205 58.6582 78.6377 58.377 78.8721C58.0957 79.1006 57.9551 79.3936 57.9551 79.751C57.9551 80.1084 58.0781 80.3809 58.3242 80.5684C58.5703 80.7559 59.0537 80.9258 59.7744 81.0781C60.876 81.3184 61.6846 81.6406 62.2002 82.0449C62.7158 82.4434 62.9736 82.9736 62.9736 83.6357C62.9736 84.3975 62.666 85.0127 62.0508 85.4814C61.4414 85.9502 60.6211 86.1846 59.5898 86.1846C58.5586 86.1846 57.7236 85.915 57.085 85.376C56.4521 84.8369 56.1504 84.1836 56.1797 83.416L56.1973 83.3721H57.6826C57.7119 83.8994 57.9082 84.2979 58.2715 84.5674C58.6406 84.8311 59.1006 84.9629 59.6514 84.9629L59.6338 84.9453ZM70.1719 80.6826C70.1719 80.0381 70.0049 79.5195 69.6709 79.127C69.3369 78.7285 68.8564 78.5293 68.2295 78.5293C67.7139 78.5293 67.2686 78.7461 66.8936 79.1797C66.5244 79.6133 66.2959 80.167 66.208 80.8408L66.2256 80.8848H70.1719V80.6826ZM68.4668 86.1846C67.2773 86.1846 66.3281 85.792 65.6191 85.0068C64.916 84.2217 64.5645 83.1875 64.5645 81.9043V81.5527C64.5645 80.3516 64.9219 79.3438 65.6367 78.5293C66.3574 77.709 67.2217 77.2988 68.2295 77.2988C69.3662 77.2988 70.2334 77.6416 70.8311 78.3271C71.4346 79.0068 71.7363 79.9414 71.7363 81.1309V82.1064H66.1816L66.1553 82.1416C66.1729 82.9854 66.3838 83.668 66.7881 84.1895C67.1982 84.7051 67.7578 84.9629 68.4668 84.9629C69.4629 84.9629 70.2715 84.6816 70.8926 84.1191L71.5078 85.1299H71.499C70.7842 85.833 69.7734 86.1846 68.4668 86.1846ZM75.9375 86.1846C75.0469 86.1846 74.3672 85.959 73.8984 85.5078C73.4297 85.0566 73.1953 84.4238 73.1953 83.6094C73.1953 82.7949 73.5234 82.1562 74.1797 81.6934C74.8359 81.2305 75.7383 80.999 76.8867 80.999H78.5742V80.1553C78.5742 79.6514 78.4189 79.2559 78.1084 78.9688C77.8037 78.6758 77.3877 78.5293 76.8604 78.5293C76.3389 78.5293 75.9199 78.6553 75.6035 78.9072C75.2871 79.1533 75.1289 79.4609 75.1289 79.8301H73.6436L73.626 79.7861C73.5967 79.1416 73.8955 78.5674 74.5225 78.0635C75.1553 77.5537 75.958 77.2988 76.9307 77.2988C77.9092 77.2988 78.6885 77.5508 79.2686 78.0547C79.8486 78.5527 80.1387 79.2588 80.1387 80.1729V84.2949C80.1387 84.957 80.2119 85.5312 80.3584 86.0176H78.75C78.6387 85.4727 78.5801 85.0449 78.5742 84.7344C78.2695 85.168 77.8828 85.5195 77.4141 85.7891C76.9512 86.0527 76.459 86.1846 75.9375 86.1846ZM74.7686 83.6445H74.7598C74.7598 84.0312 74.8799 84.333 75.1201 84.5498C75.3604 84.7666 75.7324 84.875 76.2363 84.875C76.7402 84.875 77.2207 84.7344 77.6777 84.4531C78.1406 84.166 78.4424 83.832 78.583 83.4512V82.0537H76.8428C76.2217 82.0537 75.7207 82.209 75.3398 82.5195C74.959 82.8242 74.7686 83.1992 74.7686 83.6445ZM83.9707 86.0088H82.415V77.4482H83.8037L83.9531 78.6963C84.4746 77.7529 85.1836 77.2812 86.0801 77.2812C86.291 77.2812 86.4902 77.3105 86.6777 77.3691L86.4668 78.8281L85.667 78.7754C84.8643 78.7754 84.2988 79.1475 83.9707 79.8916V86.0088ZM89.0156 81.9043C89.0156 82.8242 89.1855 83.5508 89.5254 84.084C89.8945 84.6699 90.4834 84.9629 91.292 84.9629C91.8193 84.9629 92.2764 84.8018 92.6631 84.4795C93.0498 84.1572 93.2432 83.7676 93.2432 83.3105H94.6406L94.6582 83.3633C94.6875 84.1074 94.3623 84.7637 93.6826 85.332C93.0029 85.9004 92.2061 86.1846 91.292 86.1846C90.0732 86.1846 89.127 85.7891 88.4531 84.998C87.7793 84.207 87.4424 83.1758 87.4424 81.9043V81.5703C87.4424 80.3047 87.7793 79.2764 88.4531 78.4854C89.1328 77.6943 90.0791 77.2988 91.292 77.2988C92.2881 77.2988 93.1055 77.5918 93.7441 78.1777C94.3828 78.7637 94.6904 79.4932 94.667 80.3662L94.6494 80.4102H93.2432C93.2432 79.8828 93.0586 79.4375 92.6895 79.0742C92.3203 78.7109 91.8604 78.5293 91.3096 78.5293C90.7646 78.5293 90.3164 78.667 89.9648 78.9424C89.6191 79.2178 89.373 79.5752 89.2266 80.0146C89.0859 80.4541 89.0156 80.9727 89.0156 81.5703V81.9043ZM97.9629 73.6602V78.5908C98.5781 77.7178 99.416 77.2812 100.477 77.2812C101.414 77.2812 102.132 77.5596 102.63 78.1162C103.128 78.6729 103.377 79.5137 103.377 80.6387V86H101.812V80.6211C101.812 79.9121 101.663 79.3906 101.364 79.0566C101.065 78.7168 100.611 78.5469 100.002 78.5469C99.1348 78.5469 98.4551 78.9248 97.9629 79.6807V86H96.4072V73.6602H97.9629Z" fill="black"/>
<path d="M156.957 75.708H154.979V84.7783H156.957C158.018 84.7783 158.855 84.4355 159.471 83.75C160.092 83.0586 160.402 82.1533 160.402 81.0342V79.4434C160.402 78.3301 160.092 77.4307 159.471 76.7451C158.85 76.0537 158.012 75.708 156.957 75.708ZM156.957 86H153.424V74.4863H156.957C158.469 74.4863 159.679 74.9463 160.587 75.8662C161.501 76.7803 161.958 77.9785 161.958 79.4609V81.0342C161.958 82.5166 161.501 83.7148 160.587 84.6289C159.679 85.543 158.469 86 156.957 86ZM169.051 80.6826C169.051 80.0381 168.884 79.5195 168.55 79.127C168.216 78.7285 167.735 78.5293 167.108 78.5293C166.593 78.5293 166.147 78.7461 165.772 79.1797C165.403 79.6133 165.175 80.167 165.087 80.8408L165.104 80.8848H169.051V80.6826ZM167.346 86.1846C166.156 86.1846 165.207 85.792 164.498 85.0068C163.795 84.2217 163.443 83.1875 163.443 81.9043V81.5527C163.443 80.3516 163.801 79.3438 164.516 78.5293C165.236 77.709 166.101 77.2988 167.108 77.2988C168.245 77.2988 169.112 77.6416 169.71 78.3271C170.313 79.0068 170.615 79.9414 170.615 81.1309V82.1064H165.061L165.034 82.1416C165.052 82.9854 165.263 83.668 165.667 84.1895C166.077 84.7051 166.637 84.9629 167.346 84.9629C168.342 84.9629 169.15 84.6816 169.771 84.1191L170.387 85.1299H170.378C169.663 85.833 168.652 86.1846 167.346 86.1846ZM174.588 86H173.023V78.5996H171.679V77.4395H173.023V76.3584C173.023 75.4443 173.258 74.7383 173.727 74.2402C174.201 73.7422 174.869 73.4932 175.73 73.4932C176.029 73.4932 176.416 73.5488 176.891 73.6602L176.697 74.8467C176.475 74.7939 176.22 74.7676 175.933 74.7676C175.036 74.7676 174.588 75.2979 174.588 76.3584V77.4395H176.363V78.5996H174.588V86ZM179.65 77.4395V86H178.095V77.4395H179.65ZM179.65 73.6602V75.251H178.095V73.6602H179.65ZM182.05 77.4395H183.438L183.553 78.7139C184.145 77.7588 184.991 77.2812 186.093 77.2812C187.03 77.2812 187.748 77.5566 188.246 78.1074C188.744 78.6523 188.993 79.4814 188.993 80.5947V86H187.438V80.6299C187.438 79.8857 187.291 79.3525 186.998 79.0303C186.705 78.708 186.248 78.5469 185.627 78.5469C185.182 78.5469 184.786 78.6523 184.44 78.8633C184.095 79.0742 183.816 79.373 183.605 79.7598V86H182.05V77.4395ZM196.508 80.6826C196.508 80.0381 196.341 79.5195 196.007 79.127C195.673 78.7285 195.192 78.5293 194.565 78.5293C194.05 78.5293 193.604 78.7461 193.229 79.1797C192.86 79.6133 192.632 80.167 192.544 80.8408L192.562 80.8848H196.508V80.6826ZM194.803 86.1846C193.613 86.1846 192.664 85.792 191.955 85.0068C191.252 84.2217 190.9 83.1875 190.9 81.9043V81.5527C190.9 80.3516 191.258 79.3438 191.973 78.5293C192.693 77.709 193.558 77.2988 194.565 77.2988C195.702 77.2988 196.569 77.6416 197.167 78.3271C197.771 79.0068 198.072 79.9414 198.072 81.1309V82.1064H192.518L192.491 82.1416C192.509 82.9854 192.72 83.668 193.124 84.1895C193.534 84.7051 194.094 84.9629 194.803 84.9629C195.799 84.9629 196.607 84.6816 197.229 84.1191L197.844 85.1299H197.835C197.12 85.833 196.109 86.1846 194.803 86.1846ZM204.066 82.4316V82.2646C204.066 80.8643 204.368 79.748 204.972 78.916C205.575 78.084 206.407 77.668 207.468 77.668C208.534 77.668 209.352 78.0928 209.92 78.9424L210.113 77.8262H211.353V86.4307C211.353 87.5322 211.033 88.376 210.395 88.9619C209.762 89.5479 208.842 89.8408 207.635 89.8408C207.219 89.8408 206.773 89.7822 206.299 89.665C205.824 89.5537 205.405 89.4014 205.042 89.208L205.438 87.9951C205.719 88.1533 206.056 88.2822 206.448 88.3818C206.847 88.4814 207.236 88.5312 207.617 88.5312C208.373 88.5312 208.924 88.3613 209.27 88.0215C209.621 87.6816 209.797 87.1514 209.797 86.4307V85.4639C209.229 86.1904 208.432 86.5537 207.406 86.5537C206.387 86.5537 205.575 86.1787 204.972 85.4287C204.368 84.6729 204.066 83.6738 204.066 82.4316ZM205.622 82.2646V82.4316C205.622 83.3164 205.807 84.0137 206.176 84.5234C206.551 85.0332 207.102 85.2881 207.828 85.2881C208.719 85.2881 209.378 84.8779 209.806 84.0576V80.1201C209.36 79.3291 208.707 78.9336 207.846 78.9336C207.119 78.9336 206.565 79.2354 206.185 79.8389C205.81 80.4365 205.622 81.2451 205.622 82.2646ZM214.815 81.6582V81.834C214.815 82.7832 215.009 83.542 215.396 84.1104C215.788 84.6787 216.351 84.9629 217.083 84.9629C217.815 84.9629 218.378 84.6787 218.771 84.1104C219.163 83.5361 219.359 82.7773 219.359 81.834V81.6582C219.359 80.7266 219.16 79.9736 218.762 79.3994C218.369 78.8193 217.807 78.5293 217.074 78.5293C216.348 78.5293 215.788 78.8193 215.396 79.3994C215.009 79.9736 214.815 80.7266 214.815 81.6582ZM213.251 81.834V81.6582C213.251 80.3691 213.597 79.3203 214.288 78.5117C214.979 77.7031 215.911 77.2988 217.083 77.2988C218.255 77.2988 219.187 77.7031 219.878 78.5117C220.569 79.3145 220.915 80.3633 220.915 81.6582V81.834C220.915 83.1348 220.569 84.1865 219.878 84.9893C219.192 85.7861 218.261 86.1846 217.083 86.1846C215.911 86.1846 214.979 85.7832 214.288 84.9805C213.597 84.1777 213.251 83.1289 213.251 81.834ZM225.266 86.1846C224.375 86.1846 223.695 85.959 223.227 85.5078C222.758 85.0566 222.523 84.4238 222.523 83.6094C222.523 82.7949 222.852 82.1562 223.508 81.6934C224.164 81.2305 225.066 80.999 226.215 80.999H227.902V80.1553C227.902 79.6514 227.747 79.2559 227.437 78.9688C227.132 78.6758 226.716 78.5293 226.188 78.5293C225.667 78.5293 225.248 78.6553 224.932 78.9072C224.615 79.1533 224.457 79.4609 224.457 79.8301H222.972L222.954 79.7861C222.925 79.1416 223.224 78.5674 223.851 78.0635C224.483 77.5537 225.286 77.2988 226.259 77.2988C227.237 77.2988 228.017 77.5508 228.597 78.0547C229.177 78.5527 229.467 79.2588 229.467 80.1729V84.2949C229.467 84.957 229.54 85.5312 229.687 86.0176H228.078C227.967 85.4727 227.908 85.0449 227.902 84.7344C227.598 85.168 227.211 85.5195 226.742 85.7891C226.279 86.0527 225.787 86.1846 225.266 86.1846ZM224.097 83.6445H224.088C224.088 84.0312 224.208 84.333 224.448 84.5498C224.688 84.7666 225.061 84.875 225.564 84.875C226.068 84.875 226.549 84.7344 227.006 84.4531C227.469 84.166 227.771 83.832 227.911 83.4512V82.0537H226.171C225.55 82.0537 225.049 82.209 224.668 82.5195C224.287 82.8242 224.097 83.1992 224.097 83.6445ZM233.422 73.6602V86H231.866V73.6602H233.422ZM239.003 84.9453C239.554 84.9453 239.987 84.8369 240.304 84.6201C240.62 84.3975 240.778 84.1045 240.778 83.7412C240.778 83.3779 240.644 83.0908 240.374 82.8799C240.104 82.6631 239.615 82.4727 238.906 82.3086C237.828 82.0742 237.034 81.7637 236.524 81.377C236.021 80.9844 235.769 80.4453 235.769 79.7598C235.769 79.0742 236.067 78.4912 236.665 78.0107C237.263 77.5244 238.042 77.2812 239.003 77.2812C239.964 77.2812 240.74 77.5361 241.332 78.0459C241.93 78.5498 242.214 79.1768 242.185 79.9268L242.167 79.9707H240.682C240.682 79.5781 240.521 79.2383 240.198 78.9512C239.882 78.6641 239.463 78.5205 238.941 78.5205C238.426 78.5205 238.027 78.6377 237.746 78.8721C237.465 79.1006 237.324 79.3936 237.324 79.751C237.324 80.1084 237.447 80.3809 237.693 80.5684C237.939 80.7559 238.423 80.9258 239.144 81.0781C240.245 81.3184 241.054 81.6406 241.569 82.0449C242.085 82.4434 242.343 82.9736 242.343 83.6357C242.343 84.3975 242.035 85.0127 241.42 85.4814C240.811 85.9502 239.99 86.1846 238.959 86.1846C237.928 86.1846 237.093 85.915 236.454 85.376C235.821 84.8369 235.52 84.1836 235.549 83.416L235.566 83.3721H237.052C237.081 83.8994 237.277 84.2979 237.641 84.5674C238.01 84.8311 238.47 84.9629 239.021 84.9629L239.003 84.9453Z" fill="black"/>
<path d="M320.067 74.4863V86H318.503V74.4863H320.067ZM322.353 81.8955C322.353 80.4951 322.648 79.3789 323.24 78.5469C323.832 77.7148 324.641 77.2988 325.666 77.2988C326.691 77.2988 327.479 77.6621 328.03 78.3887V73.6777H329.595V86.0176H328.32L328.136 84.9629C327.567 85.7773 326.759 86.1846 325.71 86.1846C324.661 86.1846 323.841 85.8125 323.249 85.0684C322.657 84.3184 322.361 83.3164 322.361 82.0625L322.353 81.8955ZM323.926 81.8955V82.0625C323.926 82.959 324.104 83.6592 324.462 84.1631C324.825 84.667 325.37 84.9189 326.097 84.9189C326.976 84.9189 327.626 84.5176 328.048 83.7148V79.7246C327.614 78.9512 326.97 78.5645 326.114 78.5645C325.382 78.5645 324.834 78.8633 324.471 79.4609C324.107 80.0527 323.926 80.8643 323.926 81.8955ZM337.18 80.6826C337.18 80.0381 337.013 79.5195 336.679 79.127C336.345 78.7285 335.864 78.5293 335.237 78.5293C334.722 78.5293 334.276 78.7461 333.901 79.1797C333.532 79.6133 333.304 80.167 333.216 80.8408L333.233 80.8848H337.18V80.6826ZM335.475 86.1846C334.285 86.1846 333.336 85.792 332.627 85.0068C331.924 84.2217 331.572 83.1875 331.572 81.9043V81.5527C331.572 80.3516 331.93 79.3438 332.645 78.5293C333.365 77.709 334.229 77.2988 335.237 77.2988C336.374 77.2988 337.241 77.6416 337.839 78.3271C338.442 79.0068 338.744 79.9414 338.744 81.1309V82.1064H333.189L333.163 82.1416C333.181 82.9854 333.392 83.668 333.796 84.1895C334.206 84.7051 334.766 84.9629 335.475 84.9629C336.471 84.9629 337.279 84.6816 337.9 84.1191L338.516 85.1299H338.507C337.792 85.833 336.781 86.1846 335.475 86.1846ZM342.945 86.1846C342.055 86.1846 341.375 85.959 340.906 85.5078C340.438 85.0566 340.203 84.4238 340.203 83.6094C340.203 82.7949 340.531 82.1562 341.188 81.6934C341.844 81.2305 342.746 80.999 343.895 80.999H345.582V80.1553C345.582 79.6514 345.427 79.2559 345.116 78.9688C344.812 78.6758 344.396 78.5293 343.868 78.5293C343.347 78.5293 342.928 78.6553 342.611 78.9072C342.295 79.1533 342.137 79.4609 342.137 79.8301H340.651L340.634 79.7861C340.604 79.1416 340.903 78.5674 341.53 78.0635C342.163 77.5537 342.966 77.2988 343.938 77.2988C344.917 77.2988 345.696 77.5508 346.276 78.0547C346.856 78.5527 347.146 79.2588 347.146 80.1729V84.2949C347.146 84.957 347.22 85.5312 347.366 86.0176H345.758C345.646 85.4727 345.588 85.0449 345.582 84.7344C345.277 85.168 344.891 85.5195 344.422 85.7891C343.959 86.0527 343.467 86.1846 342.945 86.1846ZM341.776 83.6445H341.768C341.768 84.0312 341.888 84.333 342.128 84.5498C342.368 84.7666 342.74 84.875 343.244 84.875C343.748 84.875 344.229 84.7344 344.686 84.4531C345.148 84.166 345.45 83.832 345.591 83.4512V82.0537H343.851C343.229 82.0537 342.729 82.209 342.348 82.5195C341.967 82.8242 341.776 83.1992 341.776 83.6445ZM349.915 75.3916H351.488V77.457H353.105V78.6172H351.488V83.8115C351.488 84.5381 351.79 84.9014 352.394 84.9014C352.581 84.9014 352.774 84.8662 352.974 84.7959L353.176 85.8594C352.895 86.0762 352.499 86.1846 351.989 86.1846C351.333 86.1846 350.823 85.9883 350.46 85.5957C350.097 85.2031 349.915 84.6084 349.915 83.8115V78.6172H348.562V77.457H349.915V75.3916ZM356.709 77.4395V86H355.153V77.4395H356.709ZM356.709 73.6602V75.251H355.153V73.6602H356.709ZM360.304 81.6582V81.834C360.304 82.7832 360.497 83.542 360.884 84.1104C361.276 84.6787 361.839 84.9629 362.571 84.9629C363.304 84.9629 363.866 84.6787 364.259 84.1104C364.651 83.5361 364.848 82.7773 364.848 81.834V81.6582C364.848 80.7266 364.648 79.9736 364.25 79.3994C363.857 78.8193 363.295 78.5293 362.562 78.5293C361.836 78.5293 361.276 78.8193 360.884 79.3994C360.497 79.9736 360.304 80.7266 360.304 81.6582ZM358.739 81.834V81.6582C358.739 80.3691 359.085 79.3203 359.776 78.5117C360.468 77.7031 361.399 77.2988 362.571 77.2988C363.743 77.2988 364.675 77.7031 365.366 78.5117C366.058 79.3145 366.403 80.3633 366.403 81.6582V81.834C366.403 83.1348 366.058 84.1865 365.366 84.9893C364.681 85.7861 363.749 86.1846 362.571 86.1846C361.399 86.1846 360.468 85.7832 359.776 84.9805C359.085 84.1777 358.739 83.1289 358.739 81.834ZM368.319 77.4395H369.708L369.822 78.7139C370.414 77.7588 371.261 77.2812 372.362 77.2812C373.3 77.2812 374.018 77.5566 374.516 78.1074C375.014 78.6523 375.263 79.4814 375.263 80.5947V86H373.707V80.6299C373.707 79.8857 373.561 79.3525 373.268 79.0303C372.975 78.708 372.518 78.5469 371.896 78.5469C371.451 78.5469 371.056 78.6523 370.71 78.8633C370.364 79.0742 370.086 79.373 369.875 79.7598V86H368.319V77.4395ZM388.209 85.209C387.342 85.8594 386.343 86.1846 385.212 86.1846C384.081 86.1846 383.176 85.8857 382.496 85.2881C381.816 84.6846 381.477 83.8936 381.477 82.915C381.477 82.2939 381.652 81.7461 382.004 81.2715C382.361 80.791 382.927 80.2959 383.7 79.7861C383.267 79.2471 382.953 78.7754 382.76 78.3711C382.572 77.9609 382.479 77.5479 382.479 77.1318C382.479 76.2354 382.73 75.5469 383.234 75.0664C383.744 74.5859 384.433 74.3457 385.3 74.3457C386.173 74.3457 386.873 74.583 387.4 75.0576C387.928 75.5264 388.191 76.1064 388.191 76.7979C388.191 77.2959 388.06 77.7324 387.796 78.1074C387.538 78.4766 387.122 78.8721 386.548 79.2939L385.678 79.9268L388.367 83.1611C388.83 82.4404 389.062 81.6201 389.062 80.7002H390.45C390.45 82.0889 390.049 83.2607 389.246 84.2158L390.714 85.9824L390.696 86.0176H388.886L388.209 85.209ZM383.032 82.915C383.032 83.5303 383.223 84.0254 383.604 84.4004C383.984 84.7754 384.541 84.9629 385.273 84.9629C386.006 84.9629 386.712 84.7139 387.392 84.2158L384.535 80.7705L384.219 80.999C383.428 81.5967 383.032 82.2354 383.032 82.915ZM386.759 76.7891C386.759 76.4551 386.627 76.168 386.363 75.9277C386.105 75.6816 385.771 75.5586 385.361 75.5586C384.951 75.5586 384.626 75.7051 384.386 75.998C384.151 76.2852 384.034 76.6719 384.034 77.1582C384.034 77.6387 384.318 78.2422 384.887 78.9688L385.985 78.2217C386.501 77.8643 386.759 77.3867 386.759 76.7891ZM403.906 74.5039H405.479V82.3086C405.479 83.5449 405.078 84.5 404.275 85.1738C403.479 85.8477 402.418 86.1846 401.094 86.1846C399.77 86.1846 398.721 85.8477 397.947 85.1738C397.174 84.4941 396.787 83.5391 396.787 82.3086V74.5039H398.352V82.3086C398.352 83.1641 398.592 83.8203 399.072 84.2773C399.559 84.7344 400.229 84.9629 401.085 84.9629C401.94 84.9629 402.623 84.7344 403.133 84.2773C403.648 83.8203 403.906 83.1641 403.906 82.3086V74.5039ZM409.065 74.4863L411.737 78.9775L414.427 74.4863H416.308L412.651 80.1904L416.387 86H414.532L411.772 81.4297L409.004 86H407.114L410.85 80.1904L407.193 74.4863H409.065Z" fill="black"/>
<path d="M509.978 74.4863L511.735 82.0098L511.946 83.4512L511.999 83.46L512.307 82.0098L514.416 74.4863H515.796L517.923 82.0098L518.239 83.4951H518.283L518.512 82.0098L520.226 74.4863H521.79L519.013 86H517.615L515.348 78.0107L515.146 76.9736H515.093L514.899 78.0107L512.588 86H511.199L508.431 74.4863H509.978ZM525.121 77.4395V86H523.565V77.4395H525.121ZM525.121 73.6602V75.251H523.565V73.6602H525.121ZM529.076 86.0088H527.521V77.4482H528.909L529.059 78.6963C529.58 77.7529 530.289 77.2812 531.186 77.2812C531.396 77.2812 531.596 77.3105 531.783 77.3691L531.572 78.8281L530.772 78.7754C529.97 78.7754 529.404 79.1475 529.076 79.8916V86.0088ZM538.322 80.6826C538.322 80.0381 538.155 79.5195 537.821 79.127C537.487 78.7285 537.007 78.5293 536.38 78.5293C535.864 78.5293 535.419 78.7461 535.044 79.1797C534.675 79.6133 534.446 80.167 534.358 80.8408L534.376 80.8848H538.322V80.6826ZM536.617 86.1846C535.428 86.1846 534.479 85.792 533.77 85.0068C533.066 84.2217 532.715 83.1875 532.715 81.9043V81.5527C532.715 80.3516 533.072 79.3438 533.787 78.5293C534.508 77.709 535.372 77.2988 536.38 77.2988C537.517 77.2988 538.384 77.6416 538.981 78.3271C539.585 79.0068 539.887 79.9414 539.887 81.1309V82.1064H534.332L534.306 82.1416C534.323 82.9854 534.534 83.668 534.938 84.1895C535.349 84.7051 535.908 84.9629 536.617 84.9629C537.613 84.9629 538.422 84.6816 539.043 84.1191L539.658 85.1299H539.649C538.935 85.833 537.924 86.1846 536.617 86.1846ZM543.859 86H542.295V78.5996H540.95V77.4395H542.295V76.3584C542.295 75.4443 542.529 74.7383 542.998 74.2402C543.473 73.7422 544.141 73.4932 545.002 73.4932C545.301 73.4932 545.688 73.5488 546.162 73.6602L545.969 74.8467C545.746 74.7939 545.491 74.7676 545.204 74.7676C544.308 74.7676 543.859 75.2979 543.859 76.3584V77.4395H545.635V78.5996H543.859V86ZM548.799 86.0088H547.243V77.4482H548.632L548.781 78.6963C549.303 77.7529 550.012 77.2812 550.908 77.2812C551.119 77.2812 551.318 77.3105 551.506 77.3691L551.295 78.8281L550.495 78.7754C549.692 78.7754 549.127 79.1475 548.799 79.8916V86.0088ZM555.232 86.1846C554.342 86.1846 553.662 85.959 553.193 85.5078C552.725 85.0566 552.49 84.4238 552.49 83.6094C552.49 82.7949 552.818 82.1562 553.475 81.6934C554.131 81.2305 555.033 80.999 556.182 80.999H557.869V80.1553C557.869 79.6514 557.714 79.2559 557.403 78.9688C557.099 78.6758 556.683 78.5293 556.155 78.5293C555.634 78.5293 555.215 78.6553 554.898 78.9072C554.582 79.1533 554.424 79.4609 554.424 79.8301H552.938L552.921 79.7861C552.892 79.1416 553.19 78.5674 553.817 78.0635C554.45 77.5537 555.253 77.2988 556.226 77.2988C557.204 77.2988 557.983 77.5508 558.563 78.0547C559.144 78.5527 559.434 79.2588 559.434 80.1729V84.2949C559.434 84.957 559.507 85.5312 559.653 86.0176H558.045C557.934 85.4727 557.875 85.0449 557.869 84.7344C557.564 85.168 557.178 85.5195 556.709 85.7891C556.246 86.0527 555.754 86.1846 555.232 86.1846ZM554.063 83.6445H554.055C554.055 84.0312 554.175 84.333 554.415 84.5498C554.655 84.7666 555.027 84.875 555.531 84.875C556.035 84.875 556.516 84.7344 556.973 84.4531C557.436 84.166 557.737 83.832 557.878 83.4512V82.0537H556.138C555.517 82.0537 555.016 82.209 554.635 82.5195C554.254 82.8242 554.063 83.1992 554.063 83.6445ZM563.266 86H561.719V77.4395H563.107L563.222 78.5645C563.808 77.709 564.675 77.2812 565.823 77.2812C566.978 77.2812 567.76 77.8086 568.17 78.8633C568.762 77.8086 569.635 77.2812 570.789 77.2812C571.686 77.2812 572.38 77.5859 572.872 78.1953C573.364 78.7988 573.61 79.6953 573.61 80.8848V86H572.055V80.8672C572.055 80.041 571.914 79.4492 571.633 79.0918C571.352 78.7285 570.93 78.5469 570.367 78.5469C569.811 78.5469 569.365 78.7285 569.031 79.0918C568.703 79.4492 568.51 79.918 568.451 80.498V86H566.878V80.8672C566.878 80.0703 566.731 79.4844 566.438 79.1094C566.151 78.7344 565.721 78.5469 565.146 78.5469C564.244 78.5469 563.617 78.9189 563.266 79.6631V86ZM581.125 80.6826C581.125 80.0381 580.958 79.5195 580.624 79.127C580.29 78.7285 579.81 78.5293 579.183 78.5293C578.667 78.5293 578.222 78.7461 577.847 79.1797C577.478 79.6133 577.249 80.167 577.161 80.8408L577.179 80.8848H581.125V80.6826ZM579.42 86.1846C578.23 86.1846 577.281 85.792 576.572 85.0068C575.869 84.2217 575.518 83.1875 575.518 81.9043V81.5527C575.518 80.3516 575.875 79.3438 576.59 78.5293C577.311 77.709 578.175 77.2988 579.183 77.2988C580.319 77.2988 581.187 77.6416 581.784 78.3271C582.388 79.0068 582.689 79.9414 582.689 81.1309V82.1064H577.135L577.108 82.1416C577.126 82.9854 577.337 83.668 577.741 84.1895C578.151 84.7051 578.711 84.9629 579.42 84.9629C580.416 84.9629 581.225 84.6816 581.846 84.1191L582.461 85.1299H582.452C581.737 85.833 580.727 86.1846 579.42 86.1846ZM587.638 84.9453C588.188 84.9453 588.622 84.8369 588.938 84.6201C589.255 84.3975 589.413 84.1045 589.413 83.7412C589.413 83.3779 589.278 83.0908 589.009 82.8799C588.739 82.6631 588.25 82.4727 587.541 82.3086C586.463 82.0742 585.669 81.7637 585.159 81.377C584.655 80.9844 584.403 80.4453 584.403 79.7598C584.403 79.0742 584.702 78.4912 585.3 78.0107C585.897 77.5244 586.677 77.2812 587.638 77.2812C588.599 77.2812 589.375 77.5361 589.967 78.0459C590.564 78.5498 590.849 79.1768 590.819 79.9268L590.802 79.9707H589.316C589.316 79.5781 589.155 79.2383 588.833 78.9512C588.517 78.6641 588.098 78.5205 587.576 78.5205C587.061 78.5205 586.662 78.6377 586.381 78.8721C586.1 79.1006 585.959 79.3936 585.959 79.751C585.959 80.1084 586.082 80.3809 586.328 80.5684C586.574 80.7559 587.058 80.9258 587.778 81.0781C588.88 81.3184 589.688 81.6406 590.204 82.0449C590.72 82.4434 590.978 82.9736 590.978 83.6357C590.978 84.3975 590.67 85.0127 590.055 85.4814C589.445 85.9502 588.625 86.1846 587.594 86.1846C586.562 86.1846 585.728 85.915 585.089 85.376C584.456 84.8369 584.154 84.1836 584.184 83.416L584.201 83.3721H585.687C585.716 83.8994 585.912 84.2979 586.275 84.5674C586.645 84.8311 587.104 84.9629 587.655 84.9629L587.638 84.9453Z" fill="black"/>
<path d="M445.957 6.70801H443.979V15.7783H445.957C447.018 15.7783 447.855 15.4355 448.471 14.75C449.092 14.0586 449.402 13.1533 449.402 12.0342V10.4434C449.402 9.33008 449.092 8.43066 448.471 7.74512C447.85 7.05371 447.012 6.70801 445.957 6.70801ZM445.957 17H442.424V5.48633H445.957C447.469 5.48633 448.679 5.94629 449.587 6.86621C450.501 7.78027 450.958 8.97852 450.958 10.4609V12.0342C450.958 13.5166 450.501 14.7148 449.587 15.6289C448.679 16.543 447.469 17 445.957 17ZM454.482 8.43945V17H452.927V8.43945H454.482ZM454.482 4.66016V6.25098H452.927V4.66016H454.482ZM460.063 15.9453C460.614 15.9453 461.048 15.8369 461.364 15.6201C461.681 15.3975 461.839 15.1045 461.839 14.7412C461.839 14.3779 461.704 14.0908 461.435 13.8799C461.165 13.6631 460.676 13.4727 459.967 13.3086C458.889 13.0742 458.095 12.7637 457.585 12.377C457.081 11.9844 456.829 11.4453 456.829 10.7598C456.829 10.0742 457.128 9.49121 457.726 9.01074C458.323 8.52441 459.103 8.28125 460.063 8.28125C461.024 8.28125 461.801 8.53613 462.393 9.0459C462.99 9.5498 463.274 10.1768 463.245 10.9268L463.228 10.9707H461.742C461.742 10.5781 461.581 10.2383 461.259 9.95117C460.942 9.66406 460.523 9.52051 460.002 9.52051C459.486 9.52051 459.088 9.6377 458.807 9.87207C458.525 10.1006 458.385 10.3936 458.385 10.751C458.385 11.1084 458.508 11.3809 458.754 11.5684C459 11.7559 459.483 11.9258 460.204 12.0781C461.306 12.3184 462.114 12.6406 462.63 13.0449C463.146 13.4434 463.403 13.9736 463.403 14.6357C463.403 15.3975 463.096 16.0127 462.48 16.4814C461.871 16.9502 461.051 17.1846 460.02 17.1846C458.988 17.1846 458.153 16.915 457.515 16.376C456.882 15.8369 456.58 15.1836 456.609 14.416L456.627 14.3721H458.112C458.142 14.8994 458.338 15.2979 458.701 15.5674C459.07 15.8311 459.53 15.9629 460.081 15.9629L460.063 15.9453ZM466.559 12.9043C466.559 13.8242 466.729 14.5508 467.068 15.084C467.438 15.6699 468.026 15.9629 468.835 15.9629C469.362 15.9629 469.819 15.8018 470.206 15.4795C470.593 15.1572 470.786 14.7676 470.786 14.3105H472.184L472.201 14.3633C472.23 15.1074 471.905 15.7637 471.226 16.332C470.546 16.9004 469.749 17.1846 468.835 17.1846C467.616 17.1846 466.67 16.7891 465.996 15.998C465.322 15.207 464.985 14.1758 464.985 12.9043V12.5703C464.985 11.3047 465.322 10.2764 465.996 9.48535C466.676 8.69434 467.622 8.29883 468.835 8.29883C469.831 8.29883 470.648 8.5918 471.287 9.17773C471.926 9.76367 472.233 10.4932 472.21 11.3662L472.192 11.4102H470.786C470.786 10.8828 470.602 10.4375 470.232 10.0742C469.863 9.71094 469.403 9.5293 468.853 9.5293C468.308 9.5293 467.859 9.66699 467.508 9.94238C467.162 10.2178 466.916 10.5752 466.77 11.0146C466.629 11.4541 466.559 11.9727 466.559 12.5703V12.9043ZM476.886 17.1846C475.925 17.1846 475.189 16.8828 474.68 16.2793C474.17 15.6699 473.915 14.7441 473.915 13.502V8.45703H475.471V13.5195C475.471 14.416 475.6 15.04 475.857 15.3916C476.121 15.7432 476.546 15.9189 477.132 15.9189C478.204 15.9189 478.937 15.4883 479.329 14.627V8.45703H480.885V17.0176H479.487L479.382 15.752C478.819 16.707 477.987 17.1846 476.886 17.1846ZM486.343 15.9453C486.894 15.9453 487.327 15.8369 487.644 15.6201C487.96 15.3975 488.118 15.1045 488.118 14.7412C488.118 14.3779 487.983 14.0908 487.714 13.8799C487.444 13.6631 486.955 13.4727 486.246 13.3086C485.168 13.0742 484.374 12.7637 483.864 12.377C483.36 11.9844 483.108 11.4453 483.108 10.7598C483.108 10.0742 483.407 9.49121 484.005 9.01074C484.603 8.52441 485.382 8.28125 486.343 8.28125C487.304 8.28125 488.08 8.53613 488.672 9.0459C489.27 9.5498 489.554 10.1768 489.524 10.9268L489.507 10.9707H488.021C488.021 10.5781 487.86 10.2383 487.538 9.95117C487.222 9.66406 486.803 9.52051 486.281 9.52051C485.766 9.52051 485.367 9.6377 485.086 9.87207C484.805 10.1006 484.664 10.3936 484.664 10.751C484.664 11.1084 484.787 11.3809 485.033 11.5684C485.279 11.7559 485.763 11.9258 486.483 12.0781C487.585 12.3184 488.394 12.6406 488.909 13.0449C489.425 13.4434 489.683 13.9736 489.683 14.6357C489.683 15.3975 489.375 16.0127 488.76 16.4814C488.15 16.9502 487.33 17.1846 486.299 17.1846C485.268 17.1846 484.433 16.915 483.794 16.376C483.161 15.8369 482.859 15.1836 482.889 14.416L482.906 14.3721H484.392C484.421 14.8994 484.617 15.2979 484.98 15.5674C485.35 15.8311 485.81 15.9629 486.36 15.9629L486.343 15.9453ZM494.815 15.9453C495.366 15.9453 495.8 15.8369 496.116 15.6201C496.433 15.3975 496.591 15.1045 496.591 14.7412C496.591 14.3779 496.456 14.0908 496.187 13.8799C495.917 13.6631 495.428 13.4727 494.719 13.3086C493.641 13.0742 492.847 12.7637 492.337 12.377C491.833 11.9844 491.581 11.4453 491.581 10.7598C491.581 10.0742 491.88 9.49121 492.478 9.01074C493.075 8.52441 493.854 8.28125 494.815 8.28125C495.776 8.28125 496.553 8.53613 497.145 9.0459C497.742 9.5498 498.026 10.1768 497.997 10.9268L497.979 10.9707H496.494C496.494 10.5781 496.333 10.2383 496.011 9.95117C495.694 9.66406 495.275 9.52051 494.754 9.52051C494.238 9.52051 493.84 9.6377 493.559 9.87207C493.277 10.1006 493.137 10.3936 493.137 10.751C493.137 11.1084 493.26 11.3809 493.506 11.5684C493.752 11.7559 494.235 11.9258 494.956 12.0781C496.058 12.3184 496.866 12.6406 497.382 13.0449C497.897 13.4434 498.155 13.9736 498.155 14.6357C498.155 15.3975 497.848 16.0127 497.232 16.4814C496.623 16.9502 495.803 17.1846 494.771 17.1846C493.74 17.1846 492.905 16.915 492.267 16.376C491.634 15.8369 491.332 15.1836 491.361 14.416L491.379 14.3721H492.864C492.894 14.8994 493.09 15.2979 493.453 15.5674C493.822 15.8311 494.282 15.9629 494.833 15.9629L494.815 15.9453ZM501.785 8.43945V17H500.229V8.43945H501.785ZM501.785 4.66016V6.25098H500.229V4.66016H501.785ZM505.38 12.6582V12.834C505.38 13.7832 505.573 14.542 505.96 15.1104C506.353 15.6787 506.915 15.9629 507.647 15.9629C508.38 15.9629 508.942 15.6787 509.335 15.1104C509.728 14.5361 509.924 13.7773 509.924 12.834V12.6582C509.924 11.7266 509.725 10.9736 509.326 10.3994C508.934 9.81934 508.371 9.5293 507.639 9.5293C506.912 9.5293 506.353 9.81934 505.96 10.3994C505.573 10.9736 505.38 11.7266 505.38 12.6582ZM503.815 12.834V12.6582C503.815 11.3691 504.161 10.3203 504.853 9.51172C505.544 8.70312 506.476 8.29883 507.647 8.29883C508.819 8.29883 509.751 8.70312 510.442 9.51172C511.134 10.3145 511.479 11.3633 511.479 12.6582V12.834C511.479 14.1348 511.134 15.1865 510.442 15.9893C509.757 16.7861 508.825 17.1846 507.647 17.1846C506.476 17.1846 505.544 16.7832 504.853 15.9805C504.161 15.1777 503.815 14.1289 503.815 12.834ZM513.396 8.43945H514.784L514.898 9.71387C515.49 8.75879 516.337 8.28125 517.438 8.28125C518.376 8.28125 519.094 8.55664 519.592 9.10742C520.09 9.65234 520.339 10.4814 520.339 11.5947V17H518.783V11.6299C518.783 10.8857 518.637 10.3525 518.344 10.0303C518.051 9.70801 517.594 9.54688 516.973 9.54688C516.527 9.54688 516.132 9.65234 515.786 9.86328C515.44 10.0742 515.162 10.373 514.951 10.7598V17H513.396V8.43945Z" fill="black"/>
<path d="M566.957 6.70801H564.979V15.7783H566.957C568.018 15.7783 568.855 15.4355 569.471 14.75C570.092 14.0586 570.402 13.1533 570.402 12.0342V10.4434C570.402 9.33008 570.092 8.43066 569.471 7.74512C568.85 7.05371 568.012 6.70801 566.957 6.70801ZM566.957 17H563.424V5.48633H566.957C568.469 5.48633 569.679 5.94629 570.587 6.86621C571.501 7.78027 571.958 8.97852 571.958 10.4609V12.0342C571.958 13.5166 571.501 14.7148 570.587 15.6289C569.679 16.543 568.469 17 566.957 17ZM575.482 8.43945V17H573.927V8.43945H575.482ZM575.482 4.66016V6.25098H573.927V4.66016H575.482ZM581.063 15.9453C581.614 15.9453 582.048 15.8369 582.364 15.6201C582.681 15.3975 582.839 15.1045 582.839 14.7412C582.839 14.3779 582.704 14.0908 582.435 13.8799C582.165 13.6631 581.676 13.4727 580.967 13.3086C579.889 13.0742 579.095 12.7637 578.585 12.377C578.081 11.9844 577.829 11.4453 577.829 10.7598C577.829 10.0742 578.128 9.49121 578.726 9.01074C579.323 8.52441 580.103 8.28125 581.063 8.28125C582.024 8.28125 582.801 8.53613 583.393 9.0459C583.99 9.5498 584.274 10.1768 584.245 10.9268L584.228 10.9707H582.742C582.742 10.5781 582.581 10.2383 582.259 9.95117C581.942 9.66406 581.523 9.52051 581.002 9.52051C580.486 9.52051 580.088 9.6377 579.807 9.87207C579.525 10.1006 579.385 10.3936 579.385 10.751C579.385 11.1084 579.508 11.3809 579.754 11.5684C580 11.7559 580.483 11.9258 581.204 12.0781C582.306 12.3184 583.114 12.6406 583.63 13.0449C584.146 13.4434 584.403 13.9736 584.403 14.6357C584.403 15.3975 584.096 16.0127 583.48 16.4814C582.871 16.9502 582.051 17.1846 581.02 17.1846C579.988 17.1846 579.153 16.915 578.515 16.376C577.882 15.8369 577.58 15.1836 577.609 14.416L577.627 14.3721H579.112C579.142 14.8994 579.338 15.2979 579.701 15.5674C580.07 15.8311 580.53 15.9629 581.081 15.9629L581.063 15.9453ZM587.559 12.9043C587.559 13.8242 587.729 14.5508 588.068 15.084C588.438 15.6699 589.026 15.9629 589.835 15.9629C590.362 15.9629 590.819 15.8018 591.206 15.4795C591.593 15.1572 591.786 14.7676 591.786 14.3105H593.184L593.201 14.3633C593.23 15.1074 592.905 15.7637 592.226 16.332C591.546 16.9004 590.749 17.1846 589.835 17.1846C588.616 17.1846 587.67 16.7891 586.996 15.998C586.322 15.207 585.985 14.1758 585.985 12.9043V12.5703C585.985 11.3047 586.322 10.2764 586.996 9.48535C587.676 8.69434 588.622 8.29883 589.835 8.29883C590.831 8.29883 591.648 8.5918 592.287 9.17773C592.926 9.76367 593.233 10.4932 593.21 11.3662L593.192 11.4102H591.786C591.786 10.8828 591.602 10.4375 591.232 10.0742C590.863 9.71094 590.403 9.5293 589.853 9.5293C589.308 9.5293 588.859 9.66699 588.508 9.94238C588.162 10.2178 587.916 10.5752 587.77 11.0146C587.629 11.4541 587.559 11.9727 587.559 12.5703V12.9043ZM597.886 17.1846C596.925 17.1846 596.189 16.8828 595.68 16.2793C595.17 15.6699 594.915 14.7441 594.915 13.502V8.45703H596.471V13.5195C596.471 14.416 596.6 15.04 596.857 15.3916C597.121 15.7432 597.546 15.9189 598.132 15.9189C599.204 15.9189 599.937 15.4883 600.329 14.627V8.45703H601.885V17.0176H600.487L600.382 15.752C599.819 16.707 598.987 17.1846 597.886 17.1846ZM607.343 15.9453C607.894 15.9453 608.327 15.8369 608.644 15.6201C608.96 15.3975 609.118 15.1045 609.118 14.7412C609.118 14.3779 608.983 14.0908 608.714 13.8799C608.444 13.6631 607.955 13.4727 607.246 13.3086C606.168 13.0742 605.374 12.7637 604.864 12.377C604.36 11.9844 604.108 11.4453 604.108 10.7598C604.108 10.0742 604.407 9.49121 605.005 9.01074C605.603 8.52441 606.382 8.28125 607.343 8.28125C608.304 8.28125 609.08 8.53613 609.672 9.0459C610.27 9.5498 610.554 10.1768 610.524 10.9268L610.507 10.9707H609.021C609.021 10.5781 608.86 10.2383 608.538 9.95117C608.222 9.66406 607.803 9.52051 607.281 9.52051C606.766 9.52051 606.367 9.6377 606.086 9.87207C605.805 10.1006 605.664 10.3936 605.664 10.751C605.664 11.1084 605.787 11.3809 606.033 11.5684C606.279 11.7559 606.763 11.9258 607.483 12.0781C608.585 12.3184 609.394 12.6406 609.909 13.0449C610.425 13.4434 610.683 13.9736 610.683 14.6357C610.683 15.3975 610.375 16.0127 609.76 16.4814C609.15 16.9502 608.33 17.1846 607.299 17.1846C606.268 17.1846 605.433 16.915 604.794 16.376C604.161 15.8369 603.859 15.1836 603.889 14.416L603.906 14.3721H605.392C605.421 14.8994 605.617 15.2979 605.98 15.5674C606.35 15.8311 606.81 15.9629 607.36 15.9629L607.343 15.9453ZM615.815 15.9453C616.366 15.9453 616.8 15.8369 617.116 15.6201C617.433 15.3975 617.591 15.1045 617.591 14.7412C617.591 14.3779 617.456 14.0908 617.187 13.8799C616.917 13.6631 616.428 13.4727 615.719 13.3086C614.641 13.0742 613.847 12.7637 613.337 12.377C612.833 11.9844 612.581 11.4453 612.581 10.7598C612.581 10.0742 612.88 9.49121 613.478 9.01074C614.075 8.52441 614.854 8.28125 615.815 8.28125C616.776 8.28125 617.553 8.53613 618.145 9.0459C618.742 9.5498 619.026 10.1768 618.997 10.9268L618.979 10.9707H617.494C617.494 10.5781 617.333 10.2383 617.011 9.95117C616.694 9.66406 616.275 9.52051 615.754 9.52051C615.238 9.52051 614.84 9.6377 614.559 9.87207C614.277 10.1006 614.137 10.3936 614.137 10.751C614.137 11.1084 614.26 11.3809 614.506 11.5684C614.752 11.7559 615.235 11.9258 615.956 12.0781C617.058 12.3184 617.866 12.6406 618.382 13.0449C618.897 13.4434 619.155 13.9736 619.155 14.6357C619.155 15.3975 618.848 16.0127 618.232 16.4814C617.623 16.9502 616.803 17.1846 615.771 17.1846C614.74 17.1846 613.905 16.915 613.267 16.376C612.634 15.8369 612.332 15.1836 612.361 14.416L612.379 14.3721H613.864C613.894 14.8994 614.09 15.2979 614.453 15.5674C614.822 15.8311 615.282 15.9629 615.833 15.9629L615.815 15.9453ZM622.785 8.43945V17H621.229V8.43945H622.785ZM622.785 4.66016V6.25098H621.229V4.66016H622.785ZM626.38 12.6582V12.834C626.38 13.7832 626.573 14.542 626.96 15.1104C627.353 15.6787 627.915 15.9629 628.647 15.9629C629.38 15.9629 629.942 15.6787 630.335 15.1104C630.728 14.5361 630.924 13.7773 630.924 12.834V12.6582C630.924 11.7266 630.725 10.9736 630.326 10.3994C629.934 9.81934 629.371 9.5293 628.639 9.5293C627.912 9.5293 627.353 9.81934 626.96 10.3994C626.573 10.9736 626.38 11.7266 626.38 12.6582ZM624.815 12.834V12.6582C624.815 11.3691 625.161 10.3203 625.853 9.51172C626.544 8.70312 627.476 8.29883 628.647 8.29883C629.819 8.29883 630.751 8.70312 631.442 9.51172C632.134 10.3145 632.479 11.3633 632.479 12.6582V12.834C632.479 14.1348 632.134 15.1865 631.442 15.9893C630.757 16.7861 629.825 17.1846 628.647 17.1846C627.476 17.1846 626.544 16.7832 625.853 15.9805C625.161 15.1777 624.815 14.1289 624.815 12.834ZM634.396 8.43945H635.784L635.898 9.71387C636.49 8.75879 637.337 8.28125 638.438 8.28125C639.376 8.28125 640.094 8.55664 640.592 9.10742C641.09 9.65234 641.339 10.4814 641.339 11.5947V17H639.783V11.6299C639.783 10.8857 639.637 10.3525 639.344 10.0303C639.051 9.70801 638.594 9.54688 637.973 9.54688C637.527 9.54688 637.132 9.65234 636.786 9.86328C636.44 10.0742 636.162 10.373 635.951 10.7598V17H634.396V8.43945Z" fill="black"/>
<path d="M684.957 6.70801H682.979V15.7783H684.957C686.018 15.7783 686.855 15.4355 687.471 14.75C688.092 14.0586 688.402 13.1533 688.402 12.0342V10.4434C688.402 9.33008 688.092 8.43066 687.471 7.74512C686.85 7.05371 686.012 6.70801 684.957 6.70801ZM684.957 17H681.424V5.48633H684.957C686.469 5.48633 687.679 5.94629 688.587 6.86621C689.501 7.78027 689.958 8.97852 689.958 10.4609V12.0342C689.958 13.5166 689.501 14.7148 688.587 15.6289C687.679 16.543 686.469 17 684.957 17ZM693.482 8.43945V17H691.927V8.43945H693.482ZM693.482 4.66016V6.25098H691.927V4.66016H693.482ZM699.063 15.9453C699.614 15.9453 700.048 15.8369 700.364 15.6201C700.681 15.3975 700.839 15.1045 700.839 14.7412C700.839 14.3779 700.704 14.0908 700.435 13.8799C700.165 13.6631 699.676 13.4727 698.967 13.3086C697.889 13.0742 697.095 12.7637 696.585 12.377C696.081 11.9844 695.829 11.4453 695.829 10.7598C695.829 10.0742 696.128 9.49121 696.726 9.01074C697.323 8.52441 698.103 8.28125 699.063 8.28125C700.024 8.28125 700.801 8.53613 701.393 9.0459C701.99 9.5498 702.274 10.1768 702.245 10.9268L702.228 10.9707H700.742C700.742 10.5781 700.581 10.2383 700.259 9.95117C699.942 9.66406 699.523 9.52051 699.002 9.52051C698.486 9.52051 698.088 9.6377 697.807 9.87207C697.525 10.1006 697.385 10.3936 697.385 10.751C697.385 11.1084 697.508 11.3809 697.754 11.5684C698 11.7559 698.483 11.9258 699.204 12.0781C700.306 12.3184 701.114 12.6406 701.63 13.0449C702.146 13.4434 702.403 13.9736 702.403 14.6357C702.403 15.3975 702.096 16.0127 701.48 16.4814C700.871 16.9502 700.051 17.1846 699.02 17.1846C697.988 17.1846 697.153 16.915 696.515 16.376C695.882 15.8369 695.58 15.1836 695.609 14.416L695.627 14.3721H697.112C697.142 14.8994 697.338 15.2979 697.701 15.5674C698.07 15.8311 698.53 15.9629 699.081 15.9629L699.063 15.9453ZM705.559 12.9043C705.559 13.8242 705.729 14.5508 706.068 15.084C706.438 15.6699 707.026 15.9629 707.835 15.9629C708.362 15.9629 708.819 15.8018 709.206 15.4795C709.593 15.1572 709.786 14.7676 709.786 14.3105H711.184L711.201 14.3633C711.23 15.1074 710.905 15.7637 710.226 16.332C709.546 16.9004 708.749 17.1846 707.835 17.1846C706.616 17.1846 705.67 16.7891 704.996 15.998C704.322 15.207 703.985 14.1758 703.985 12.9043V12.5703C703.985 11.3047 704.322 10.2764 704.996 9.48535C705.676 8.69434 706.622 8.29883 707.835 8.29883C708.831 8.29883 709.648 8.5918 710.287 9.17773C710.926 9.76367 711.233 10.4932 711.21 11.3662L711.192 11.4102H709.786C709.786 10.8828 709.602 10.4375 709.232 10.0742C708.863 9.71094 708.403 9.5293 707.853 9.5293C707.308 9.5293 706.859 9.66699 706.508 9.94238C706.162 10.2178 705.916 10.5752 705.77 11.0146C705.629 11.4541 705.559 11.9727 705.559 12.5703V12.9043ZM715.886 17.1846C714.925 17.1846 714.189 16.8828 713.68 16.2793C713.17 15.6699 712.915 14.7441 712.915 13.502V8.45703H714.471V13.5195C714.471 14.416 714.6 15.04 714.857 15.3916C715.121 15.7432 715.546 15.9189 716.132 15.9189C717.204 15.9189 717.937 15.4883 718.329 14.627V8.45703H719.885V17.0176H718.487L718.382 15.752C717.819 16.707 716.987 17.1846 715.886 17.1846ZM725.343 15.9453C725.894 15.9453 726.327 15.8369 726.644 15.6201C726.96 15.3975 727.118 15.1045 727.118 14.7412C727.118 14.3779 726.983 14.0908 726.714 13.8799C726.444 13.6631 725.955 13.4727 725.246 13.3086C724.168 13.0742 723.374 12.7637 722.864 12.377C722.36 11.9844 722.108 11.4453 722.108 10.7598C722.108 10.0742 722.407 9.49121 723.005 9.01074C723.603 8.52441 724.382 8.28125 725.343 8.28125C726.304 8.28125 727.08 8.53613 727.672 9.0459C728.27 9.5498 728.554 10.1768 728.524 10.9268L728.507 10.9707H727.021C727.021 10.5781 726.86 10.2383 726.538 9.95117C726.222 9.66406 725.803 9.52051 725.281 9.52051C724.766 9.52051 724.367 9.6377 724.086 9.87207C723.805 10.1006 723.664 10.3936 723.664 10.751C723.664 11.1084 723.787 11.3809 724.033 11.5684C724.279 11.7559 724.763 11.9258 725.483 12.0781C726.585 12.3184 727.394 12.6406 727.909 13.0449C728.425 13.4434 728.683 13.9736 728.683 14.6357C728.683 15.3975 728.375 16.0127 727.76 16.4814C727.15 16.9502 726.33 17.1846 725.299 17.1846C724.268 17.1846 723.433 16.915 722.794 16.376C722.161 15.8369 721.859 15.1836 721.889 14.416L721.906 14.3721H723.392C723.421 14.8994 723.617 15.2979 723.98 15.5674C724.35 15.8311 724.81 15.9629 725.36 15.9629L725.343 15.9453ZM733.815 15.9453C734.366 15.9453 734.8 15.8369 735.116 15.6201C735.433 15.3975 735.591 15.1045 735.591 14.7412C735.591 14.3779 735.456 14.0908 735.187 13.8799C734.917 13.6631 734.428 13.4727 733.719 13.3086C732.641 13.0742 731.847 12.7637 731.337 12.377C730.833 11.9844 730.581 11.4453 730.581 10.7598C730.581 10.0742 730.88 9.49121 731.478 9.01074C732.075 8.52441 732.854 8.28125 733.815 8.28125C734.776 8.28125 735.553 8.53613 736.145 9.0459C736.742 9.5498 737.026 10.1768 736.997 10.9268L736.979 10.9707H735.494C735.494 10.5781 735.333 10.2383 735.011 9.95117C734.694 9.66406 734.275 9.52051 733.754 9.52051C733.238 9.52051 732.84 9.6377 732.559 9.87207C732.277 10.1006 732.137 10.3936 732.137 10.751C732.137 11.1084 732.26 11.3809 732.506 11.5684C732.752 11.7559 733.235 11.9258 733.956 12.0781C735.058 12.3184 735.866 12.6406 736.382 13.0449C736.897 13.4434 737.155 13.9736 737.155 14.6357C737.155 15.3975 736.848 16.0127 736.232 16.4814C735.623 16.9502 734.803 17.1846 733.771 17.1846C732.74 17.1846 731.905 16.915 731.267 16.376C730.634 15.8369 730.332 15.1836 730.361 14.416L730.379 14.3721H731.864C731.894 14.8994 732.09 15.2979 732.453 15.5674C732.822 15.8311 733.282 15.9629 733.833 15.9629L733.815 15.9453ZM740.785 8.43945V17H739.229V8.43945H740.785ZM740.785 4.66016V6.25098H739.229V4.66016H740.785ZM744.38 12.6582V12.834C744.38 13.7832 744.573 14.542 744.96 15.1104C745.353 15.6787 745.915 15.9629 746.647 15.9629C747.38 15.9629 747.942 15.6787 748.335 15.1104C748.728 14.5361 748.924 13.7773 748.924 12.834V12.6582C748.924 11.7266 748.725 10.9736 748.326 10.3994C747.934 9.81934 747.371 9.5293 746.639 9.5293C745.912 9.5293 745.353 9.81934 744.96 10.3994C744.573 10.9736 744.38 11.7266 744.38 12.6582ZM742.815 12.834V12.6582C742.815 11.3691 743.161 10.3203 743.853 9.51172C744.544 8.70312 745.476 8.29883 746.647 8.29883C747.819 8.29883 748.751 8.70312 749.442 9.51172C750.134 10.3145 750.479 11.3633 750.479 12.6582V12.834C750.479 14.1348 750.134 15.1865 749.442 15.9893C748.757 16.7861 747.825 17.1846 746.647 17.1846C745.476 17.1846 744.544 16.7832 743.853 15.9805C743.161 15.1777 742.815 14.1289 742.815 12.834ZM752.396 8.43945H753.784L753.898 9.71387C754.49 8.75879 755.337 8.28125 756.438 8.28125C757.376 8.28125 758.094 8.55664 758.592 9.10742C759.09 9.65234 759.339 10.4814 759.339 11.5947V17H757.783V11.6299C757.783 10.8857 757.637 10.3525 757.344 10.0303C757.051 9.70801 756.594 9.54688 755.973 9.54688C755.527 9.54688 755.132 9.65234 754.786 9.86328C754.44 10.0742 754.162 10.373 753.951 10.7598V17H752.396V8.43945Z" fill="black"/>
<path d="M791.957 6.70801H789.979V15.7783H791.957C793.018 15.7783 793.855 15.4355 794.471 14.75C795.092 14.0586 795.402 13.1533 795.402 12.0342V10.4434C795.402 9.33008 795.092 8.43066 794.471 7.74512C793.85 7.05371 793.012 6.70801 791.957 6.70801ZM791.957 17H788.424V5.48633H791.957C793.469 5.48633 794.679 5.94629 795.587 6.86621C796.501 7.78027 796.958 8.97852 796.958 10.4609V12.0342C796.958 13.5166 796.501 14.7148 795.587 15.6289C794.679 16.543 793.469 17 791.957 17ZM800.482 8.43945V17H798.927V8.43945H800.482ZM800.482 4.66016V6.25098H798.927V4.66016H800.482ZM806.063 15.9453C806.614 15.9453 807.048 15.8369 807.364 15.6201C807.681 15.3975 807.839 15.1045 807.839 14.7412C807.839 14.3779 807.704 14.0908 807.435 13.8799C807.165 13.6631 806.676 13.4727 805.967 13.3086C804.889 13.0742 804.095 12.7637 803.585 12.377C803.081 11.9844 802.829 11.4453 802.829 10.7598C802.829 10.0742 803.128 9.49121 803.726 9.01074C804.323 8.52441 805.103 8.28125 806.063 8.28125C807.024 8.28125 807.801 8.53613 808.393 9.0459C808.99 9.5498 809.274 10.1768 809.245 10.9268L809.228 10.9707H807.742C807.742 10.5781 807.581 10.2383 807.259 9.95117C806.942 9.66406 806.523 9.52051 806.002 9.52051C805.486 9.52051 805.088 9.6377 804.807 9.87207C804.525 10.1006 804.385 10.3936 804.385 10.751C804.385 11.1084 804.508 11.3809 804.754 11.5684C805 11.7559 805.483 11.9258 806.204 12.0781C807.306 12.3184 808.114 12.6406 808.63 13.0449C809.146 13.4434 809.403 13.9736 809.403 14.6357C809.403 15.3975 809.096 16.0127 808.48 16.4814C807.871 16.9502 807.051 17.1846 806.02 17.1846C804.988 17.1846 804.153 16.915 803.515 16.376C802.882 15.8369 802.58 15.1836 802.609 14.416L802.627 14.3721H804.112C804.142 14.8994 804.338 15.2979 804.701 15.5674C805.07 15.8311 805.53 15.9629 806.081 15.9629L806.063 15.9453ZM812.559 12.9043C812.559 13.8242 812.729 14.5508 813.068 15.084C813.438 15.6699 814.026 15.9629 814.835 15.9629C815.362 15.9629 815.819 15.8018 816.206 15.4795C816.593 15.1572 816.786 14.7676 816.786 14.3105H818.184L818.201 14.3633C818.23 15.1074 817.905 15.7637 817.226 16.332C816.546 16.9004 815.749 17.1846 814.835 17.1846C813.616 17.1846 812.67 16.7891 811.996 15.998C811.322 15.207 810.985 14.1758 810.985 12.9043V12.5703C810.985 11.3047 811.322 10.2764 811.996 9.48535C812.676 8.69434 813.622 8.29883 814.835 8.29883C815.831 8.29883 816.648 8.5918 817.287 9.17773C817.926 9.76367 818.233 10.4932 818.21 11.3662L818.192 11.4102H816.786C816.786 10.8828 816.602 10.4375 816.232 10.0742C815.863 9.71094 815.403 9.5293 814.853 9.5293C814.308 9.5293 813.859 9.66699 813.508 9.94238C813.162 10.2178 812.916 10.5752 812.77 11.0146C812.629 11.4541 812.559 11.9727 812.559 12.5703V12.9043ZM822.886 17.1846C821.925 17.1846 821.189 16.8828 820.68 16.2793C820.17 15.6699 819.915 14.7441 819.915 13.502V8.45703H821.471V13.5195C821.471 14.416 821.6 15.04 821.857 15.3916C822.121 15.7432 822.546 15.9189 823.132 15.9189C824.204 15.9189 824.937 15.4883 825.329 14.627V8.45703H826.885V17.0176H825.487L825.382 15.752C824.819 16.707 823.987 17.1846 822.886 17.1846ZM832.343 15.9453C832.894 15.9453 833.327 15.8369 833.644 15.6201C833.96 15.3975 834.118 15.1045 834.118 14.7412C834.118 14.3779 833.983 14.0908 833.714 13.8799C833.444 13.6631 832.955 13.4727 832.246 13.3086C831.168 13.0742 830.374 12.7637 829.864 12.377C829.36 11.9844 829.108 11.4453 829.108 10.7598C829.108 10.0742 829.407 9.49121 830.005 9.01074C830.603 8.52441 831.382 8.28125 832.343 8.28125C833.304 8.28125 834.08 8.53613 834.672 9.0459C835.27 9.5498 835.554 10.1768 835.524 10.9268L835.507 10.9707H834.021C834.021 10.5781 833.86 10.2383 833.538 9.95117C833.222 9.66406 832.803 9.52051 832.281 9.52051C831.766 9.52051 831.367 9.6377 831.086 9.87207C830.805 10.1006 830.664 10.3936 830.664 10.751C830.664 11.1084 830.787 11.3809 831.033 11.5684C831.279 11.7559 831.763 11.9258 832.483 12.0781C833.585 12.3184 834.394 12.6406 834.909 13.0449C835.425 13.4434 835.683 13.9736 835.683 14.6357C835.683 15.3975 835.375 16.0127 834.76 16.4814C834.15 16.9502 833.33 17.1846 832.299 17.1846C831.268 17.1846 830.433 16.915 829.794 16.376C829.161 15.8369 828.859 15.1836 828.889 14.416L828.906 14.3721H830.392C830.421 14.8994 830.617 15.2979 830.98 15.5674C831.35 15.8311 831.81 15.9629 832.36 15.9629L832.343 15.9453ZM840.815 15.9453C841.366 15.9453 841.8 15.8369 842.116 15.6201C842.433 15.3975 842.591 15.1045 842.591 14.7412C842.591 14.3779 842.456 14.0908 842.187 13.8799C841.917 13.6631 841.428 13.4727 840.719 13.3086C839.641 13.0742 838.847 12.7637 838.337 12.377C837.833 11.9844 837.581 11.4453 837.581 10.7598C837.581 10.0742 837.88 9.49121 838.478 9.01074C839.075 8.52441 839.854 8.28125 840.815 8.28125C841.776 8.28125 842.553 8.53613 843.145 9.0459C843.742 9.5498 844.026 10.1768 843.997 10.9268L843.979 10.9707H842.494C842.494 10.5781 842.333 10.2383 842.011 9.95117C841.694 9.66406 841.275 9.52051 840.754 9.52051C840.238 9.52051 839.84 9.6377 839.559 9.87207C839.277 10.1006 839.137 10.3936 839.137 10.751C839.137 11.1084 839.26 11.3809 839.506 11.5684C839.752 11.7559 840.235 11.9258 840.956 12.0781C842.058 12.3184 842.866 12.6406 843.382 13.0449C843.897 13.4434 844.155 13.9736 844.155 14.6357C844.155 15.3975 843.848 16.0127 843.232 16.4814C842.623 16.9502 841.803 17.1846 840.771 17.1846C839.74 17.1846 838.905 16.915 838.267 16.376C837.634 15.8369 837.332 15.1836 837.361 14.416L837.379 14.3721H838.864C838.894 14.8994 839.09 15.2979 839.453 15.5674C839.822 15.8311 840.282 15.9629 840.833 15.9629L840.815 15.9453ZM847.785 8.43945V17H846.229V8.43945H847.785ZM847.785 4.66016V6.25098H846.229V4.66016H847.785ZM851.38 12.6582V12.834C851.38 13.7832 851.573 14.542 851.96 15.1104C852.353 15.6787 852.915 15.9629 853.647 15.9629C854.38 15.9629 854.942 15.6787 855.335 15.1104C855.728 14.5361 855.924 13.7773 855.924 12.834V12.6582C855.924 11.7266 855.725 10.9736 855.326 10.3994C854.934 9.81934 854.371 9.5293 853.639 9.5293C852.912 9.5293 852.353 9.81934 851.96 10.3994C851.573 10.9736 851.38 11.7266 851.38 12.6582ZM849.815 12.834V12.6582C849.815 11.3691 850.161 10.3203 850.853 9.51172C851.544 8.70312 852.476 8.29883 853.647 8.29883C854.819 8.29883 855.751 8.70312 856.442 9.51172C857.134 10.3145 857.479 11.3633 857.479 12.6582V12.834C857.479 14.1348 857.134 15.1865 856.442 15.9893C855.757 16.7861 854.825 17.1846 853.647 17.1846C852.476 17.1846 851.544 16.7832 850.853 15.9805C850.161 15.1777 849.815 14.1289 849.815 12.834ZM859.396 8.43945H860.784L860.898 9.71387C861.49 8.75879 862.337 8.28125 863.438 8.28125C864.376 8.28125 865.094 8.55664 865.592 9.10742C866.09 9.65234 866.339 10.4814 866.339 11.5947V17H864.783V11.6299C864.783 10.8857 864.637 10.3525 864.344 10.0303C864.051 9.70801 863.594 9.54688 862.973 9.54688C862.527 9.54688 862.132 9.65234 861.786 9.86328C861.44 10.0742 861.162 10.373 860.951 10.7598V17H859.396V8.43945Z" fill="black"/>
<path d="M683.906 80.5947H680.979V84.7783H683.678C684.393 84.7783 684.946 84.6055 685.339 84.2598C685.731 83.9082 685.928 83.3984 685.928 82.7305C685.928 82.0625 685.758 81.541 685.418 81.166C685.084 80.7852 684.58 80.5947 683.906 80.5947ZM680.979 75.708V79.3818H683.502C684.094 79.3818 684.568 79.2207 684.926 78.8984C685.289 78.5762 685.471 78.1338 685.471 77.5713C685.471 76.3291 684.709 75.708 683.186 75.708H680.979ZM683.678 86H679.424V74.4863H683.186C684.416 74.4863 685.362 74.75 686.024 75.2773C686.692 75.7988 687.026 76.5723 687.026 77.5977C687.026 78.1074 686.865 78.5645 686.543 78.9688C686.221 79.373 685.787 79.6719 685.242 79.8652C685.934 80.0176 686.479 80.3574 686.877 80.8848C687.281 81.4062 687.483 82.0273 687.483 82.748C687.483 83.7969 687.146 84.6025 686.473 85.165C685.805 85.7217 684.873 86 683.678 86ZM691.043 86.0088H689.487V77.4482H690.876L691.025 78.6963C691.547 77.7529 692.256 77.2812 693.152 77.2812C693.363 77.2812 693.562 77.3105 693.75 77.3691L693.539 78.8281L692.739 78.7754C691.937 78.7754 691.371 79.1475 691.043 79.8916V86.0088ZM697.477 86.1846C696.586 86.1846 695.906 85.959 695.438 85.5078C694.969 85.0566 694.734 84.4238 694.734 83.6094C694.734 82.7949 695.062 82.1562 695.719 81.6934C696.375 81.2305 697.277 80.999 698.426 80.999H700.113V80.1553C700.113 79.6514 699.958 79.2559 699.647 78.9688C699.343 78.6758 698.927 78.5293 698.399 78.5293C697.878 78.5293 697.459 78.6553 697.143 78.9072C696.826 79.1533 696.668 79.4609 696.668 79.8301H695.183L695.165 79.7861C695.136 79.1416 695.435 78.5674 696.062 78.0635C696.694 77.5537 697.497 77.2988 698.47 77.2988C699.448 77.2988 700.228 77.5508 700.808 78.0547C701.388 78.5527 701.678 79.2588 701.678 80.1729V84.2949C701.678 84.957 701.751 85.5312 701.897 86.0176H700.289C700.178 85.4727 700.119 85.0449 700.113 84.7344C699.809 85.168 699.422 85.5195 698.953 85.7891C698.49 86.0527 697.998 86.1846 697.477 86.1846ZM696.308 83.6445H696.299C696.299 84.0312 696.419 84.333 696.659 84.5498C696.899 84.7666 697.271 84.875 697.775 84.875C698.279 84.875 698.76 84.7344 699.217 84.4531C699.68 84.166 699.981 83.832 700.122 83.4512V82.0537H698.382C697.761 82.0537 697.26 82.209 696.879 82.5195C696.498 82.8242 696.308 83.1992 696.308 83.6445ZM703.954 77.4395H705.343L705.457 78.7139C706.049 77.7588 706.896 77.2812 707.997 77.2812C708.935 77.2812 709.652 77.5566 710.15 78.1074C710.648 78.6523 710.897 79.4814 710.897 80.5947V86H709.342V80.6299C709.342 79.8857 709.195 79.3525 708.902 79.0303C708.609 78.708 708.152 78.5469 707.531 78.5469C707.086 78.5469 706.69 78.6523 706.345 78.8633C705.999 79.0742 705.721 79.373 705.51 79.7598V86H703.954V77.4395ZM712.796 81.8955C712.796 80.4951 713.092 79.3789 713.684 78.5469C714.275 77.7148 715.084 77.2988 716.109 77.2988C717.135 77.2988 717.923 77.6621 718.474 78.3887V73.6777H720.038V86.0176H718.764L718.579 84.9629C718.011 85.7773 717.202 86.1846 716.153 86.1846C715.104 86.1846 714.284 85.8125 713.692 85.0684C713.101 84.3184 712.805 83.3164 712.805 82.0625L712.796 81.8955ZM714.369 81.8955V82.0625C714.369 82.959 714.548 83.6592 714.905 84.1631C715.269 84.667 715.813 84.9189 716.54 84.9189C717.419 84.9189 718.069 84.5176 718.491 83.7148V79.7246C718.058 78.9512 717.413 78.5645 716.558 78.5645C715.825 78.5645 715.277 78.8633 714.914 79.4609C714.551 80.0527 714.369 80.8643 714.369 81.8955ZM724.055 77.4395V86H722.499V77.4395H724.055ZM724.055 73.6602V75.251H722.499V73.6602H724.055ZM726.454 77.4395H727.843L727.957 78.7139C728.549 77.7588 729.396 77.2812 730.497 77.2812C731.435 77.2812 732.152 77.5566 732.65 78.1074C733.148 78.6523 733.397 79.4814 733.397 80.5947V86H731.842V80.6299C731.842 79.8857 731.695 79.3525 731.402 79.0303C731.109 78.708 730.652 78.5469 730.031 78.5469C729.586 78.5469 729.19 78.6523 728.845 78.8633C728.499 79.0742 728.221 79.373 728.01 79.7598V86H726.454V77.4395ZM735.322 82.4316V82.2646C735.322 80.8643 735.624 79.748 736.228 78.916C736.831 78.084 737.663 77.668 738.724 77.668C739.79 77.668 740.607 78.0928 741.176 78.9424L741.369 77.8262H742.608V86.4307C742.608 87.5322 742.289 88.376 741.65 88.9619C741.018 89.5479 740.098 89.8408 738.891 89.8408C738.475 89.8408 738.029 89.7822 737.555 89.665C737.08 89.5537 736.661 89.4014 736.298 89.208L736.693 87.9951C736.975 88.1533 737.312 88.2822 737.704 88.3818C738.103 88.4814 738.492 88.5312 738.873 88.5312C739.629 88.5312 740.18 88.3613 740.525 88.0215C740.877 87.6816 741.053 87.1514 741.053 86.4307V85.4639C740.484 86.1904 739.688 86.5537 738.662 86.5537C737.643 86.5537 736.831 86.1787 736.228 85.4287C735.624 84.6729 735.322 83.6738 735.322 82.4316ZM736.878 82.2646V82.4316C736.878 83.3164 737.062 84.0137 737.432 84.5234C737.807 85.0332 738.357 85.2881 739.084 85.2881C739.975 85.2881 740.634 84.8779 741.062 84.0576V80.1201C740.616 79.3291 739.963 78.9336 739.102 78.9336C738.375 78.9336 737.821 79.2354 737.44 79.8389C737.065 80.4365 736.878 81.2451 736.878 82.2646ZM755.555 85.209C754.688 85.8594 753.688 86.1846 752.558 86.1846C751.427 86.1846 750.521 85.8857 749.842 85.2881C749.162 84.6846 748.822 83.8936 748.822 82.915C748.822 82.2939 748.998 81.7461 749.35 81.2715C749.707 80.791 750.272 80.2959 751.046 79.7861C750.612 79.2471 750.299 78.7754 750.105 78.3711C749.918 77.9609 749.824 77.5479 749.824 77.1318C749.824 76.2354 750.076 75.5469 750.58 75.0664C751.09 74.5859 751.778 74.3457 752.646 74.3457C753.519 74.3457 754.219 74.583 754.746 75.0576C755.273 75.5264 755.537 76.1064 755.537 76.7979C755.537 77.2959 755.405 77.7324 755.142 78.1074C754.884 78.4766 754.468 78.8721 753.894 79.2939L753.023 79.9268L755.713 83.1611C756.176 82.4404 756.407 81.6201 756.407 80.7002H757.796C757.796 82.0889 757.395 83.2607 756.592 84.2158L758.06 85.9824L758.042 86.0176H756.231L755.555 85.209ZM750.378 82.915C750.378 83.5303 750.568 84.0254 750.949 84.4004C751.33 84.7754 751.887 84.9629 752.619 84.9629C753.352 84.9629 754.058 84.7139 754.737 84.2158L751.881 80.7705L751.564 80.999C750.773 81.5967 750.378 82.2354 750.378 82.915ZM754.104 76.7891C754.104 76.4551 753.973 76.168 753.709 75.9277C753.451 75.6816 753.117 75.5586 752.707 75.5586C752.297 75.5586 751.972 75.7051 751.731 75.998C751.497 76.2852 751.38 76.6719 751.38 77.1582C751.38 77.6387 751.664 78.2422 752.232 78.9688L753.331 78.2217C753.847 77.8643 754.104 77.3867 754.104 76.7891ZM771.252 74.5039H772.825V82.3086C772.825 83.5449 772.424 84.5 771.621 85.1738C770.824 85.8477 769.764 86.1846 768.439 86.1846C767.115 86.1846 766.066 85.8477 765.293 85.1738C764.52 84.4941 764.133 83.5391 764.133 82.3086V74.5039H765.697V82.3086C765.697 83.1641 765.938 83.8203 766.418 84.2773C766.904 84.7344 767.575 84.9629 768.431 84.9629C769.286 84.9629 769.969 84.7344 770.479 84.2773C770.994 83.8203 771.252 83.1641 771.252 82.3086V74.5039ZM777.009 74.4863V86H775.444V74.4863H777.009Z" fill="black"/>
<path d="M924.067 74.4863V86H922.503V74.4863H924.067ZM928.277 86H926.73V77.4395H928.119L928.233 78.5645C928.819 77.709 929.687 77.2812 930.835 77.2812C931.989 77.2812 932.771 77.8086 933.182 78.8633C933.773 77.8086 934.646 77.2812 935.801 77.2812C936.697 77.2812 937.392 77.5859 937.884 78.1953C938.376 78.7988 938.622 79.6953 938.622 80.8848V86H937.066V80.8672C937.066 80.041 936.926 79.4492 936.645 79.0918C936.363 78.7285 935.941 78.5469 935.379 78.5469C934.822 78.5469 934.377 78.7285 934.043 79.0918C933.715 79.4492 933.521 79.918 933.463 80.498V86H931.89V80.8672C931.89 80.0703 931.743 79.4844 931.45 79.1094C931.163 78.7344 930.732 78.5469 930.158 78.5469C929.256 78.5469 928.629 78.9189 928.277 79.6631V86ZM948.185 82.2471V82.4141C948.185 83.6621 947.886 84.6611 947.288 85.4111C946.696 86.1553 945.882 86.5273 944.845 86.5273C943.808 86.5273 943.008 86.1758 942.445 85.4727V89.6562H940.89V77.8086H942.085L942.331 78.916C942.899 78.0723 943.72 77.6504 944.792 77.6504C945.87 77.6504 946.705 78.0664 947.297 78.8984C947.889 79.7246 948.185 80.8408 948.185 82.2471ZM946.62 82.4141V82.2471C946.62 81.2393 946.424 80.4336 946.031 79.8301C945.645 79.2207 945.088 78.916 944.361 78.916C943.5 78.916 942.861 79.2939 942.445 80.0498V84.1895C942.855 84.9395 943.5 85.3145 944.379 85.3145C945.1 85.3145 945.653 85.0508 946.04 84.5234C946.427 83.9961 946.62 83.293 946.62 82.4141ZM951.779 73.6602V86H950.224V73.6602H951.779ZM959.426 80.6826C959.426 80.0381 959.259 79.5195 958.925 79.127C958.591 78.7285 958.11 78.5293 957.483 78.5293C956.968 78.5293 956.522 78.7461 956.147 79.1797C955.778 79.6133 955.55 80.167 955.462 80.8408L955.479 80.8848H959.426V80.6826ZM957.721 86.1846C956.531 86.1846 955.582 85.792 954.873 85.0068C954.17 84.2217 953.818 83.1875 953.818 81.9043V81.5527C953.818 80.3516 954.176 79.3438 954.891 78.5293C955.611 77.709 956.476 77.2988 957.483 77.2988C958.62 77.2988 959.487 77.6416 960.085 78.3271C960.688 79.0068 960.99 79.9414 960.99 81.1309V82.1064H955.436L955.409 82.1416C955.427 82.9854 955.638 83.668 956.042 84.1895C956.452 84.7051 957.012 84.9629 957.721 84.9629C958.717 84.9629 959.525 84.6816 960.146 84.1191L960.762 85.1299H960.753C960.038 85.833 959.027 86.1846 957.721 86.1846ZM964.312 86H962.766V77.4395H964.154L964.269 78.5645C964.854 77.709 965.722 77.2812 966.87 77.2812C968.024 77.2812 968.807 77.8086 969.217 78.8633C969.809 77.8086 970.682 77.2812 971.836 77.2812C972.732 77.2812 973.427 77.5859 973.919 78.1953C974.411 78.7988 974.657 79.6953 974.657 80.8848V86H973.102V80.8672C973.102 80.041 972.961 79.4492 972.68 79.0918C972.398 78.7285 971.977 78.5469 971.414 78.5469C970.857 78.5469 970.412 78.7285 970.078 79.0918C969.75 79.4492 969.557 79.918 969.498 80.498V86H967.925V80.8672C967.925 80.0703 967.778 79.4844 967.485 79.1094C967.198 78.7344 966.768 78.5469 966.193 78.5469C965.291 78.5469 964.664 78.9189 964.312 79.6631V86ZM982.172 80.6826C982.172 80.0381 982.005 79.5195 981.671 79.127C981.337 78.7285 980.856 78.5293 980.229 78.5293C979.714 78.5293 979.269 78.7461 978.894 79.1797C978.524 79.6133 978.296 80.167 978.208 80.8408L978.226 80.8848H982.172V80.6826ZM980.467 86.1846C979.277 86.1846 978.328 85.792 977.619 85.0068C976.916 84.2217 976.564 83.1875 976.564 81.9043V81.5527C976.564 80.3516 976.922 79.3438 977.637 78.5293C978.357 77.709 979.222 77.2988 980.229 77.2988C981.366 77.2988 982.233 77.6416 982.831 78.3271C983.435 79.0068 983.736 79.9414 983.736 81.1309V82.1064H978.182L978.155 82.1416C978.173 82.9854 978.384 83.668 978.788 84.1895C979.198 84.7051 979.758 84.9629 980.467 84.9629C981.463 84.9629 982.271 84.6816 982.893 84.1191L983.508 85.1299H983.499C982.784 85.833 981.773 86.1846 980.467 86.1846ZM985.503 77.4395H986.892L987.006 78.7139C987.598 77.7588 988.444 77.2812 989.546 77.2812C990.483 77.2812 991.201 77.5566 991.699 78.1074C992.197 78.6523 992.446 79.4814 992.446 80.5947V86H990.891V80.6299C990.891 79.8857 990.744 79.3525 990.451 79.0303C990.158 78.708 989.701 78.5469 989.08 78.5469C988.635 78.5469 988.239 78.6523 987.894 78.8633C987.548 79.0742 987.27 79.373 987.059 79.7598V86H985.503V77.4395ZM995.206 75.3916H996.779V77.457H998.396V78.6172H996.779V83.8115C996.779 84.5381 997.081 84.9014 997.685 84.9014C997.872 84.9014 998.065 84.8662 998.265 84.7959L998.467 85.8594C998.186 86.0762 997.79 86.1846 997.28 86.1846C996.624 86.1846 996.114 85.9883 995.751 85.5957C995.388 85.2031 995.206 84.6084 995.206 83.8115V78.6172H993.853V77.457H995.206V75.3916ZM1002.76 86.1846C1001.87 86.1846 1001.19 85.959 1000.72 85.5078C1000.25 85.0566 1000.01 84.4238 1000.01 83.6094C1000.01 82.7949 1000.34 82.1562 1001 81.6934C1001.65 81.2305 1002.56 80.999 1003.71 80.999H1005.39V80.1553C1005.39 79.6514 1005.24 79.2559 1004.93 78.9688C1004.62 78.6758 1004.21 78.5293 1003.68 78.5293C1003.16 78.5293 1002.74 78.6553 1002.42 78.9072C1002.11 79.1533 1001.95 79.4609 1001.95 79.8301H1000.46L1000.44 79.7861C1000.42 79.1416 1000.71 78.5674 1001.34 78.0635C1001.97 77.5537 1002.78 77.2988 1003.75 77.2988C1004.73 77.2988 1005.51 77.5508 1006.09 78.0547C1006.67 78.5527 1006.96 79.2588 1006.96 80.1729V84.2949C1006.96 84.957 1007.03 85.5312 1007.18 86.0176H1005.57C1005.46 85.4727 1005.4 85.0449 1005.39 84.7344C1005.09 85.168 1004.7 85.5195 1004.23 85.7891C1003.77 86.0527 1003.28 86.1846 1002.76 86.1846ZM1001.59 83.6445H1001.58C1001.58 84.0312 1001.7 84.333 1001.94 84.5498C1002.18 84.7666 1002.55 84.875 1003.05 84.875C1003.56 84.875 1004.04 84.7344 1004.5 84.4531C1004.96 84.166 1005.26 83.832 1005.4 83.4512V82.0537H1003.66C1003.04 82.0537 1002.54 82.209 1002.16 82.5195C1001.78 82.8242 1001.59 83.1992 1001.59 83.6445ZM1009.73 75.3916H1011.3V77.457H1012.92V78.6172H1011.3V83.8115C1011.3 84.5381 1011.6 84.9014 1012.2 84.9014C1012.39 84.9014 1012.58 84.8662 1012.78 84.7959L1012.99 85.8594C1012.71 86.0762 1012.31 86.1846 1011.8 86.1846C1011.14 86.1846 1010.63 85.9883 1010.27 85.5957C1009.91 85.2031 1009.73 84.6084 1009.73 83.8115V78.6172H1008.37V77.457H1009.73V75.3916ZM1016.52 77.4395V86H1014.96V77.4395H1016.52ZM1016.52 73.6602V75.251H1014.96V73.6602H1016.52ZM1020.11 81.6582V81.834C1020.11 82.7832 1020.31 83.542 1020.69 84.1104C1021.09 84.6787 1021.65 84.9629 1022.38 84.9629C1023.11 84.9629 1023.68 84.6787 1024.07 84.1104C1024.46 83.5361 1024.66 82.7773 1024.66 81.834V81.6582C1024.66 80.7266 1024.46 79.9736 1024.06 79.3994C1023.67 78.8193 1023.11 78.5293 1022.37 78.5293C1021.65 78.5293 1021.09 78.8193 1020.69 79.3994C1020.31 79.9736 1020.11 80.7266 1020.11 81.6582ZM1018.55 81.834V81.6582C1018.55 80.3691 1018.9 79.3203 1019.59 78.5117C1020.28 77.7031 1021.21 77.2988 1022.38 77.2988C1023.55 77.2988 1024.49 77.7031 1025.18 78.5117C1025.87 79.3145 1026.21 80.3633 1026.21 81.6582V81.834C1026.21 83.1348 1025.87 84.1865 1025.18 84.9893C1024.49 85.7861 1023.56 86.1846 1022.38 86.1846C1021.21 86.1846 1020.28 85.7832 1019.59 84.9805C1018.9 84.1777 1018.55 83.1289 1018.55 81.834ZM1028.13 77.4395H1029.52L1029.63 78.7139C1030.22 77.7588 1031.07 77.2812 1032.17 77.2812C1033.11 77.2812 1033.83 77.5566 1034.33 78.1074C1034.82 78.6523 1035.07 79.4814 1035.07 80.5947V86H1033.52V80.6299C1033.52 79.8857 1033.37 79.3525 1033.08 79.0303C1032.79 78.708 1032.33 78.5469 1031.71 78.5469C1031.26 78.5469 1030.87 78.6523 1030.52 78.8633C1030.17 79.0742 1029.9 79.373 1029.69 79.7598V86H1028.13V77.4395Z" fill="black"/>
<path d="M1129.31 82.7041C1129.31 83.4248 1129.57 83.9814 1130.09 84.374C1130.62 84.7666 1131.29 84.9629 1132.11 84.9629C1132.92 84.9629 1133.56 84.7988 1134.01 84.4707C1134.47 84.1367 1134.7 83.6914 1134.7 83.1348C1134.7 82.5781 1134.49 82.124 1134.08 81.7725C1133.68 81.4209 1132.99 81.1279 1132 80.8936C1129.42 80.2725 1128.12 79.1357 1128.12 77.4834C1128.12 76.5752 1128.49 75.8252 1129.23 75.2334C1129.97 74.6357 1130.94 74.3369 1132.13 74.3369C1133.33 74.3369 1134.32 74.6738 1135.08 75.3477C1135.84 76.0215 1136.21 76.8301 1136.18 77.7734L1136.16 77.8262H1134.67C1134.67 77.1348 1134.45 76.584 1134 76.1738C1133.54 75.7637 1132.92 75.5586 1132.12 75.5586C1131.33 75.5586 1130.73 75.7314 1130.3 76.0771C1129.89 76.417 1129.68 76.8594 1129.68 77.4043C1129.68 77.9434 1129.9 78.3799 1130.35 78.7139C1130.79 79.042 1131.52 79.335 1132.54 79.5928C1135.02 80.2197 1136.25 81.3887 1136.25 83.0996C1136.25 84.0312 1135.88 84.7783 1135.12 85.3408C1134.37 85.9033 1133.37 86.1846 1132.14 86.1846C1131.36 86.1846 1130.64 86.0498 1129.98 85.7803C1129.32 85.5049 1128.79 85.1006 1128.39 84.5674C1127.98 84.0342 1127.79 83.4277 1127.81 82.748L1127.83 82.7041H1129.31ZM1145.37 79.4346V80.6562H1140.09V84.7783H1146.17V86H1138.53V74.4863H1146.09V75.708H1140.09V79.4346H1145.37ZM1155.17 81.2891V79.2236C1155.17 78.1514 1154.88 77.2842 1154.31 76.6221C1153.73 75.9541 1152.98 75.6201 1152.06 75.6201C1151.13 75.6201 1150.4 75.9541 1149.85 76.6221C1149.31 77.29 1149.03 78.1572 1149.03 79.2236V81.2891C1149.03 82.3672 1149.3 83.2402 1149.84 83.9082C1150.39 84.5762 1151.13 84.9102 1152.06 84.9102C1152.99 84.9102 1153.74 84.5791 1154.31 83.917C1154.88 83.249 1155.17 82.373 1155.17 81.2891ZM1156.72 79.2412V81.2891C1156.72 82.7129 1156.29 83.8848 1155.42 84.8047C1154.54 85.7246 1153.42 86.1846 1152.05 86.1846C1150.68 86.1846 1149.58 85.7246 1148.74 84.8047C1147.9 83.8848 1147.48 82.7129 1147.48 81.2891V79.2412C1147.48 77.8174 1147.9 76.6455 1148.74 75.7256C1149.58 74.7998 1150.68 74.3369 1152.05 74.3369C1153.42 74.3369 1154.54 74.7969 1155.42 75.7168C1156.29 76.6367 1156.72 77.8115 1156.72 79.2412ZM1169.43 85.209C1168.57 85.8594 1167.57 86.1846 1166.44 86.1846C1165.31 86.1846 1164.4 85.8857 1163.72 85.2881C1163.04 84.6846 1162.7 83.8936 1162.7 82.915C1162.7 82.2939 1162.88 81.7461 1163.23 81.2715C1163.59 80.791 1164.15 80.2959 1164.92 79.7861C1164.49 79.2471 1164.18 78.7754 1163.98 78.3711C1163.8 77.9609 1163.7 77.5479 1163.7 77.1318C1163.7 76.2354 1163.96 75.5469 1164.46 75.0664C1164.97 74.5859 1165.66 74.3457 1166.52 74.3457C1167.4 74.3457 1168.1 74.583 1168.62 75.0576C1169.15 75.5264 1169.42 76.1064 1169.42 76.7979C1169.42 77.2959 1169.28 77.7324 1169.02 78.1074C1168.76 78.4766 1168.35 78.8721 1167.77 79.2939L1166.9 79.9268L1169.59 83.1611C1170.05 82.4404 1170.29 81.6201 1170.29 80.7002H1171.67C1171.67 82.0889 1171.27 83.2607 1170.47 84.2158L1171.94 85.9824L1171.92 86.0176H1170.11L1169.43 85.209ZM1164.26 82.915C1164.26 83.5303 1164.45 84.0254 1164.83 84.4004C1165.21 84.7754 1165.77 84.9629 1166.5 84.9629C1167.23 84.9629 1167.94 84.7139 1168.62 84.2158L1165.76 80.7705L1165.44 80.999C1164.65 81.5967 1164.26 82.2354 1164.26 82.915ZM1167.98 76.7891C1167.98 76.4551 1167.85 76.168 1167.59 75.9277C1167.33 75.6816 1167 75.5586 1166.59 75.5586C1166.18 75.5586 1165.85 75.7051 1165.61 75.998C1165.38 76.2852 1165.26 76.6719 1165.26 77.1582C1165.26 77.6387 1165.54 78.2422 1166.11 78.9688L1167.21 78.2217C1167.73 77.8643 1167.98 77.3867 1167.98 76.7891ZM1185.6 86L1184.52 83.0293H1179.69L1178.6 86H1177.01L1181.47 74.4863H1182.8L1187.18 86H1185.6ZM1182.11 76.4814L1180.17 81.7285H1184.05L1182.15 76.4814H1182.11ZM1188.48 77.4395H1189.87L1189.98 78.7139C1190.57 77.7588 1191.42 77.2812 1192.52 77.2812C1193.46 77.2812 1194.18 77.5566 1194.68 78.1074C1195.17 78.6523 1195.42 79.4814 1195.42 80.5947V86H1193.87V80.6299C1193.87 79.8857 1193.72 79.3525 1193.43 79.0303C1193.13 78.708 1192.68 78.5469 1192.06 78.5469C1191.61 78.5469 1191.22 78.6523 1190.87 78.8633C1190.52 79.0742 1190.25 79.373 1190.04 79.7598V86H1188.48V77.4395ZM1200.12 86.1846C1199.23 86.1846 1198.55 85.959 1198.09 85.5078C1197.62 85.0566 1197.38 84.4238 1197.38 83.6094C1197.38 82.7949 1197.71 82.1562 1198.37 81.6934C1199.02 81.2305 1199.93 80.999 1201.07 80.999H1202.76V80.1553C1202.76 79.6514 1202.61 79.2559 1202.3 78.9688C1201.99 78.6758 1201.58 78.5293 1201.05 78.5293C1200.53 78.5293 1200.11 78.6553 1199.79 78.9072C1199.47 79.1533 1199.32 79.4609 1199.32 79.8301H1197.83L1197.81 79.7861C1197.78 79.1416 1198.08 78.5674 1198.71 78.0635C1199.34 77.5537 1200.15 77.2988 1201.12 77.2988C1202.1 77.2988 1202.88 77.5508 1203.46 78.0547C1204.04 78.5527 1204.33 79.2588 1204.33 80.1729V84.2949C1204.33 84.957 1204.4 85.5312 1204.55 86.0176H1202.94C1202.83 85.4727 1202.77 85.0449 1202.76 84.7344C1202.46 85.168 1202.07 85.5195 1201.6 85.7891C1201.14 86.0527 1200.65 86.1846 1200.12 86.1846ZM1198.96 83.6445H1198.95C1198.95 84.0312 1199.07 84.333 1199.31 84.5498C1199.55 84.7666 1199.92 84.875 1200.42 84.875C1200.93 84.875 1201.41 84.7344 1201.87 84.4531C1202.33 84.166 1202.63 83.832 1202.77 83.4512V82.0537H1201.03C1200.41 82.0537 1199.91 82.209 1199.53 82.5195C1199.15 82.8242 1198.96 83.1992 1198.96 83.6445ZM1208.28 73.6602V86H1206.73V73.6602H1208.28ZM1211.3 89.8408C1211.07 89.8408 1210.77 89.7998 1210.37 89.7178L1210.53 88.4873C1210.92 88.5166 1211.15 88.5312 1211.23 88.5312C1211.53 88.5312 1211.79 88.4023 1211.99 88.1445C1212.2 87.8867 1212.39 87.541 1212.56 87.1074L1212.93 86.2109L1209.75 77.8262H1211.49L1213.31 83.2139L1213.58 84.2861H1213.63L1215.73 77.8262H1217.47L1213.87 87.6963C1213.33 89.126 1212.47 89.8408 1211.3 89.8408ZM1219.33 75.3916H1220.9V77.457H1222.52V78.6172H1220.9V83.8115C1220.9 84.5381 1221.2 84.9014 1221.81 84.9014C1222 84.9014 1222.19 84.8662 1222.39 84.7959L1222.59 85.8594C1222.31 86.0762 1221.91 86.1846 1221.4 86.1846C1220.75 86.1846 1220.24 85.9883 1219.87 85.5957C1219.51 85.2031 1219.33 84.6084 1219.33 83.8115V78.6172H1217.98V77.457H1219.33V75.3916ZM1226.12 77.4395V86H1224.57V77.4395H1226.12ZM1226.12 73.6602V75.251H1224.57V73.6602H1226.12ZM1229.73 81.9043C1229.73 82.8242 1229.9 83.5508 1230.24 84.084C1230.61 84.6699 1231.19 84.9629 1232 84.9629C1232.53 84.9629 1232.99 84.8018 1233.37 84.4795C1233.76 84.1572 1233.95 83.7676 1233.95 83.3105H1235.35L1235.37 83.3633C1235.4 84.1074 1235.07 84.7637 1234.39 85.332C1233.71 85.9004 1232.92 86.1846 1232 86.1846C1230.78 86.1846 1229.84 85.7891 1229.16 84.998C1228.49 84.207 1228.15 83.1758 1228.15 81.9043V81.5703C1228.15 80.3047 1228.49 79.2764 1229.16 78.4854C1229.84 77.6943 1230.79 77.2988 1232 77.2988C1233 77.2988 1233.82 77.5918 1234.46 78.1777C1235.09 78.7637 1235.4 79.4932 1235.38 80.3662L1235.36 80.4102H1233.95C1233.95 79.8828 1233.77 79.4375 1233.4 79.0742C1233.03 78.7109 1232.57 78.5293 1232.02 78.5293C1231.48 78.5293 1231.03 78.667 1230.68 78.9424C1230.33 79.2178 1230.08 79.5752 1229.94 80.0146C1229.8 80.4541 1229.73 80.9727 1229.73 81.5703V81.9043ZM1240.3 84.9453C1240.85 84.9453 1241.28 84.8369 1241.6 84.6201C1241.92 84.3975 1242.08 84.1045 1242.08 83.7412C1242.08 83.3779 1241.94 83.0908 1241.67 82.8799C1241.4 82.6631 1240.91 82.4727 1240.2 82.3086C1239.12 82.0742 1238.33 81.7637 1237.82 81.377C1237.32 80.9844 1237.07 80.4453 1237.07 79.7598C1237.07 79.0742 1237.36 78.4912 1237.96 78.0107C1238.56 77.5244 1239.34 77.2812 1240.3 77.2812C1241.26 77.2812 1242.04 77.5361 1242.63 78.0459C1243.23 78.5498 1243.51 79.1768 1243.48 79.9268L1243.46 79.9707H1241.98C1241.98 79.5781 1241.82 79.2383 1241.5 78.9512C1241.18 78.6641 1240.76 78.5205 1240.24 78.5205C1239.72 78.5205 1239.32 78.6377 1239.04 78.8721C1238.76 79.1006 1238.62 79.3936 1238.62 79.751C1238.62 80.1084 1238.74 80.3809 1238.99 80.5684C1239.24 80.7559 1239.72 80.9258 1240.44 81.0781C1241.54 81.3184 1242.35 81.6406 1242.87 82.0449C1243.38 82.4434 1243.64 82.9736 1243.64 83.6357C1243.64 84.3975 1243.33 85.0127 1242.72 85.4814C1242.11 85.9502 1241.29 86.1846 1240.26 86.1846C1239.22 86.1846 1238.39 85.915 1237.75 85.376C1237.12 84.8369 1236.82 84.1836 1236.85 83.416L1236.86 83.3721H1238.35C1238.38 83.8994 1238.57 84.2979 1238.94 84.5674C1239.31 84.8311 1239.77 84.9629 1240.32 84.9629L1240.3 84.9453Z" fill="black"/>
<path d="M1305.22 74.4863V75.708H1301.52V86H1299.96V75.708H1296.27V74.4863H1305.22ZM1311.87 80.6826C1311.87 80.0381 1311.71 79.5195 1311.37 79.127C1311.04 78.7285 1310.56 78.5293 1309.93 78.5293C1309.42 78.5293 1308.97 78.7461 1308.59 79.1797C1308.23 79.6133 1308 80.167 1307.91 80.8408L1307.93 80.8848H1311.87V80.6826ZM1310.17 86.1846C1308.98 86.1846 1308.03 85.792 1307.32 85.0068C1306.62 84.2217 1306.27 83.1875 1306.27 81.9043V81.5527C1306.27 80.3516 1306.62 79.3438 1307.34 78.5293C1308.06 77.709 1308.92 77.2988 1309.93 77.2988C1311.07 77.2988 1311.93 77.6416 1312.53 78.3271C1313.14 79.0068 1313.44 79.9414 1313.44 81.1309V82.1064H1307.88L1307.86 82.1416C1307.87 82.9854 1308.08 83.668 1308.49 84.1895C1308.9 84.7051 1309.46 84.9629 1310.17 84.9629C1311.16 84.9629 1311.97 84.6816 1312.59 84.1191L1313.21 85.1299H1313.2C1312.49 85.833 1311.47 86.1846 1310.17 86.1846ZM1318.39 84.9453C1318.94 84.9453 1319.37 84.8369 1319.69 84.6201C1320 84.3975 1320.16 84.1045 1320.16 83.7412C1320.16 83.3779 1320.03 83.0908 1319.76 82.8799C1319.49 82.6631 1319 82.4727 1318.29 82.3086C1317.21 82.0742 1316.42 81.7637 1315.91 81.377C1315.4 80.9844 1315.15 80.4453 1315.15 79.7598C1315.15 79.0742 1315.45 78.4912 1316.05 78.0107C1316.65 77.5244 1317.42 77.2812 1318.39 77.2812C1319.35 77.2812 1320.12 77.5361 1320.71 78.0459C1321.31 78.5498 1321.6 79.1768 1321.57 79.9268L1321.55 79.9707H1320.06C1320.06 79.5781 1319.9 79.2383 1319.58 78.9512C1319.26 78.6641 1318.85 78.5205 1318.32 78.5205C1317.81 78.5205 1317.41 78.6377 1317.13 78.8721C1316.85 79.1006 1316.71 79.3936 1316.71 79.751C1316.71 80.1084 1316.83 80.3809 1317.08 80.5684C1317.32 80.7559 1317.81 80.9258 1318.53 81.0781C1319.63 81.3184 1320.44 81.6406 1320.95 82.0449C1321.47 82.4434 1321.73 82.9736 1321.73 83.6357C1321.73 84.3975 1321.42 85.0127 1320.8 85.4814C1320.19 85.9502 1319.37 86.1846 1318.34 86.1846C1317.31 86.1846 1316.48 85.915 1315.84 85.376C1315.2 84.8369 1314.9 84.1836 1314.93 83.416L1314.95 83.3721H1316.43C1316.46 83.8994 1316.66 84.2979 1317.02 84.5674C1317.39 84.8311 1317.85 84.9629 1318.4 84.9629L1318.39 84.9453ZM1324.17 75.3916H1325.74V77.457H1327.36V78.6172H1325.74V83.8115C1325.74 84.5381 1326.04 84.9014 1326.65 84.9014C1326.83 84.9014 1327.03 84.8662 1327.23 84.7959L1327.43 85.8594C1327.15 86.0762 1326.75 86.1846 1326.24 86.1846C1325.59 86.1846 1325.08 85.9883 1324.71 85.5957C1324.35 85.2031 1324.17 84.6084 1324.17 83.8115V78.6172H1322.82V77.457H1324.17V75.3916ZM1330.96 77.4395V86H1329.41V77.4395H1330.96ZM1330.96 73.6602V75.251H1329.41V73.6602H1330.96ZM1333.36 77.4395H1334.75L1334.87 78.7139C1335.46 77.7588 1336.3 77.2812 1337.41 77.2812C1338.34 77.2812 1339.06 77.5566 1339.56 78.1074C1340.06 78.6523 1340.31 79.4814 1340.31 80.5947V86H1338.75V80.6299C1338.75 79.8857 1338.6 79.3525 1338.31 79.0303C1338.02 78.708 1337.56 78.5469 1336.94 78.5469C1336.49 78.5469 1336.1 78.6523 1335.75 78.8633C1335.41 79.0742 1335.13 79.373 1334.92 79.7598V86H1333.36V77.4395ZM1342.23 82.4316V82.2646C1342.23 80.8643 1342.53 79.748 1343.14 78.916C1343.74 78.084 1344.57 77.668 1345.63 77.668C1346.7 77.668 1347.52 78.0928 1348.08 78.9424L1348.28 77.8262H1349.52V86.4307C1349.52 87.5322 1349.2 88.376 1348.56 88.9619C1347.93 89.5479 1347.01 89.8408 1345.8 89.8408C1345.38 89.8408 1344.94 89.7822 1344.46 89.665C1343.99 89.5537 1343.57 89.4014 1343.21 89.208L1343.6 87.9951C1343.88 88.1533 1344.22 88.2822 1344.61 88.3818C1345.01 88.4814 1345.4 88.5312 1345.78 88.5312C1346.54 88.5312 1347.09 88.3613 1347.43 88.0215C1347.79 87.6816 1347.96 87.1514 1347.96 86.4307V85.4639C1347.39 86.1904 1346.6 86.5537 1345.57 86.5537C1344.55 86.5537 1343.74 86.1787 1343.14 85.4287C1342.53 84.6729 1342.23 83.6738 1342.23 82.4316ZM1343.79 82.2646V82.4316C1343.79 83.3164 1343.97 84.0137 1344.34 84.5234C1344.71 85.0332 1345.27 85.2881 1345.99 85.2881C1346.88 85.2881 1347.54 84.8779 1347.97 84.0576V80.1201C1347.52 79.3291 1346.87 78.9336 1346.01 78.9336C1345.28 78.9336 1344.73 79.2354 1344.35 79.8389C1343.97 80.4365 1343.79 81.2451 1343.79 82.2646Z" fill="black"/>
<path d="M1383.96 75.708H1381.98V84.7783H1383.96C1385.02 84.7783 1385.86 84.4355 1386.47 83.75C1387.09 83.0586 1387.4 82.1533 1387.4 81.0342V79.4434C1387.4 78.3301 1387.09 77.4307 1386.47 76.7451C1385.85 76.0537 1385.01 75.708 1383.96 75.708ZM1383.96 86H1380.42V74.4863H1383.96C1385.47 74.4863 1386.68 74.9463 1387.59 75.8662C1388.5 76.7803 1388.96 77.9785 1388.96 79.4609V81.0342C1388.96 82.5166 1388.5 83.7148 1387.59 84.6289C1386.68 85.543 1385.47 86 1383.96 86ZM1396.05 80.6826C1396.05 80.0381 1395.88 79.5195 1395.55 79.127C1395.22 78.7285 1394.74 78.5293 1394.11 78.5293C1393.59 78.5293 1393.15 78.7461 1392.77 79.1797C1392.4 79.6133 1392.17 80.167 1392.09 80.8408L1392.1 80.8848H1396.05V80.6826ZM1394.35 86.1846C1393.16 86.1846 1392.21 85.792 1391.5 85.0068C1390.79 84.2217 1390.44 83.1875 1390.44 81.9043V81.5527C1390.44 80.3516 1390.8 79.3438 1391.52 78.5293C1392.24 77.709 1393.1 77.2988 1394.11 77.2988C1395.25 77.2988 1396.11 77.6416 1396.71 78.3271C1397.31 79.0068 1397.62 79.9414 1397.62 81.1309V82.1064H1392.06L1392.03 82.1416C1392.05 82.9854 1392.26 83.668 1392.67 84.1895C1393.08 84.7051 1393.64 84.9629 1394.35 84.9629C1395.34 84.9629 1396.15 84.6816 1396.77 84.1191L1397.39 85.1299H1397.38C1396.66 85.833 1395.65 86.1846 1394.35 86.1846ZM1401.06 73.6602V86H1399.5V73.6602H1401.06ZM1405.14 77.4395V86H1403.58V77.4395H1405.14ZM1405.14 73.6602V75.251H1403.58V73.6602H1405.14ZM1408.36 77.4395L1410.39 83.4775L1410.53 84.0752H1410.57L1410.72 83.4775L1412.7 77.4395H1414.28L1411.13 86H1409.96L1406.76 77.4395H1408.36ZM1420.94 80.6826C1420.94 80.0381 1420.77 79.5195 1420.44 79.127C1420.11 78.7285 1419.63 78.5293 1419 78.5293C1418.48 78.5293 1418.04 78.7461 1417.66 79.1797C1417.29 79.6133 1417.07 80.167 1416.98 80.8408L1417 80.8848H1420.94V80.6826ZM1419.24 86.1846C1418.05 86.1846 1417.1 85.792 1416.39 85.0068C1415.69 84.2217 1415.33 83.1875 1415.33 81.9043V81.5527C1415.33 80.3516 1415.69 79.3438 1416.41 78.5293C1417.13 77.709 1417.99 77.2988 1419 77.2988C1420.14 77.2988 1421 77.6416 1421.6 78.3271C1422.2 79.0068 1422.51 79.9414 1422.51 81.1309V82.1064H1416.95L1416.92 82.1416C1416.94 82.9854 1417.15 83.668 1417.56 84.1895C1417.97 84.7051 1418.53 84.9629 1419.24 84.9629C1420.23 84.9629 1421.04 84.6816 1421.66 84.1191L1422.28 85.1299H1422.27C1421.55 85.833 1420.54 86.1846 1419.24 86.1846ZM1425.83 86.0088H1424.27V77.4482H1425.66L1425.81 78.6963C1426.33 77.7529 1427.04 77.2812 1427.94 77.2812C1428.15 77.2812 1428.35 77.3105 1428.54 77.3691L1428.32 78.8281L1427.52 78.7754C1426.72 78.7754 1426.16 79.1475 1425.83 79.8916V86.0088ZM1430.44 89.8408C1430.22 89.8408 1429.91 89.7998 1429.52 89.7178L1429.68 88.4873C1430.06 88.5166 1430.3 88.5312 1430.37 88.5312C1430.68 88.5312 1430.93 88.4023 1431.14 88.1445C1431.35 87.8867 1431.54 87.541 1431.71 87.1074L1432.08 86.2109L1428.9 77.8262H1430.64L1432.46 83.2139L1432.73 84.2861H1432.78L1434.88 77.8262H1436.61L1433.02 87.6963C1432.47 89.126 1431.61 89.8408 1430.44 89.8408Z" fill="black"/>
<path d="M1489.42 74.4863H1491.42L1495.08 83.8379H1495.14L1498.8 74.4863H1500.8V86H1499.24V81.4473L1499.4 76.7627L1499.36 76.7539L1495.63 86H1494.59L1490.87 76.7803H1490.83L1490.98 81.4473V86H1489.42V74.4863ZM1505.81 86.1846C1504.92 86.1846 1504.24 85.959 1503.77 85.5078C1503.3 85.0566 1503.06 84.4238 1503.06 83.6094C1503.06 82.7949 1503.39 82.1562 1504.05 81.6934C1504.71 81.2305 1505.61 80.999 1506.76 80.999H1508.44V80.1553C1508.44 79.6514 1508.29 79.2559 1507.98 78.9688C1507.67 78.6758 1507.26 78.5293 1506.73 78.5293C1506.21 78.5293 1505.79 78.6553 1505.47 78.9072C1505.16 79.1533 1505 79.4609 1505 79.8301H1503.51L1503.5 79.7861C1503.47 79.1416 1503.76 78.5674 1504.39 78.0635C1505.02 77.5537 1505.83 77.2988 1506.8 77.2988C1507.78 77.2988 1508.56 77.5508 1509.14 78.0547C1509.72 78.5527 1510.01 79.2588 1510.01 80.1729V84.2949C1510.01 84.957 1510.08 85.5312 1510.23 86.0176H1508.62C1508.51 85.4727 1508.45 85.0449 1508.44 84.7344C1508.14 85.168 1507.75 85.5195 1507.28 85.7891C1506.82 86.0527 1506.33 86.1846 1505.81 86.1846ZM1504.64 83.6445H1504.63C1504.63 84.0312 1504.75 84.333 1504.99 84.5498C1505.23 84.7666 1505.6 84.875 1506.11 84.875C1506.61 84.875 1507.09 84.7344 1507.55 84.4531C1508.01 84.166 1508.31 83.832 1508.45 83.4512V82.0537H1506.71C1506.09 82.0537 1505.59 82.209 1505.21 82.5195C1504.83 82.8242 1504.64 83.1992 1504.64 83.6445ZM1513.96 77.4395V86H1512.41V77.4395H1513.96ZM1513.96 73.6602V75.251H1512.41V73.6602H1513.96ZM1516.36 77.4395H1517.75L1517.87 78.7139C1518.46 77.7588 1519.3 77.2812 1520.41 77.2812C1521.34 77.2812 1522.06 77.5566 1522.56 78.1074C1523.06 78.6523 1523.31 79.4814 1523.31 80.5947V86H1521.75V80.6299C1521.75 79.8857 1521.6 79.3525 1521.31 79.0303C1521.02 78.708 1520.56 78.5469 1519.94 78.5469C1519.49 78.5469 1519.1 78.6523 1518.75 78.8633C1518.41 79.0742 1518.13 79.373 1517.92 79.7598V86H1516.36V77.4395ZM1526.07 75.3916H1527.64V77.457H1529.26V78.6172H1527.64V83.8115C1527.64 84.5381 1527.94 84.9014 1528.54 84.9014C1528.73 84.9014 1528.92 84.8662 1529.12 84.7959L1529.33 85.8594C1529.04 86.0762 1528.65 86.1846 1528.14 86.1846C1527.48 86.1846 1526.97 85.9883 1526.61 85.5957C1526.25 85.2031 1526.07 84.6084 1526.07 83.8115V78.6172H1524.71V77.457H1526.07V75.3916ZM1536.43 80.6826C1536.43 80.0381 1536.26 79.5195 1535.93 79.127C1535.59 78.7285 1535.11 78.5293 1534.49 78.5293C1533.97 78.5293 1533.52 78.7461 1533.15 79.1797C1532.78 79.6133 1532.55 80.167 1532.46 80.8408L1532.48 80.8848H1536.43V80.6826ZM1534.72 86.1846C1533.53 86.1846 1532.58 85.792 1531.88 85.0068C1531.17 84.2217 1530.82 83.1875 1530.82 81.9043V81.5527C1530.82 80.3516 1531.18 79.3438 1531.89 78.5293C1532.61 77.709 1533.48 77.2988 1534.49 77.2988C1535.62 77.2988 1536.49 77.6416 1537.09 78.3271C1537.69 79.0068 1537.99 79.9414 1537.99 81.1309V82.1064H1532.44L1532.41 82.1416C1532.43 82.9854 1532.64 83.668 1533.04 84.1895C1533.45 84.7051 1534.01 84.9629 1534.72 84.9629C1535.72 84.9629 1536.53 84.6816 1537.15 84.1191L1537.76 85.1299H1537.75C1537.04 85.833 1536.03 86.1846 1534.72 86.1846ZM1539.76 77.4395H1541.15L1541.26 78.7139C1541.85 77.7588 1542.7 77.2812 1543.8 77.2812C1544.74 77.2812 1545.46 77.5566 1545.96 78.1074C1546.45 78.6523 1546.7 79.4814 1546.7 80.5947V86H1545.15V80.6299C1545.15 79.8857 1545 79.3525 1544.71 79.0303C1544.41 78.708 1543.96 78.5469 1543.34 78.5469C1542.89 78.5469 1542.5 78.6523 1542.15 78.8633C1541.8 79.0742 1541.53 79.373 1541.31 79.7598V86H1539.76V77.4395ZM1551.4 86.1846C1550.51 86.1846 1549.83 85.959 1549.37 85.5078C1548.9 85.0566 1548.66 84.4238 1548.66 83.6094C1548.66 82.7949 1548.99 82.1562 1549.65 81.6934C1550.3 81.2305 1551.21 80.999 1552.35 80.999H1554.04V80.1553C1554.04 79.6514 1553.89 79.2559 1553.58 78.9688C1553.27 78.6758 1552.85 78.5293 1552.33 78.5293C1551.81 78.5293 1551.39 78.6553 1551.07 78.9072C1550.75 79.1533 1550.6 79.4609 1550.6 79.8301H1549.11L1549.09 79.7861C1549.06 79.1416 1549.36 78.5674 1549.99 78.0635C1550.62 77.5537 1551.42 77.2988 1552.4 77.2988C1553.38 77.2988 1554.16 77.5508 1554.74 78.0547C1555.32 78.5527 1555.61 79.2588 1555.61 80.1729V84.2949C1555.61 84.957 1555.68 85.5312 1555.83 86.0176H1554.22C1554.11 85.4727 1554.05 85.0449 1554.04 84.7344C1553.74 85.168 1553.35 85.5195 1552.88 85.7891C1552.42 86.0527 1551.93 86.1846 1551.4 86.1846ZM1550.24 83.6445H1550.23C1550.23 84.0312 1550.35 84.333 1550.59 84.5498C1550.83 84.7666 1551.2 84.875 1551.7 84.875C1552.21 84.875 1552.69 84.7344 1553.14 84.4531C1553.61 84.166 1553.91 83.832 1554.05 83.4512V82.0537H1552.31C1551.69 82.0537 1551.19 82.209 1550.81 82.5195C1550.43 82.8242 1550.24 83.1992 1550.24 83.6445ZM1557.88 77.4395H1559.27L1559.38 78.7139C1559.98 77.7588 1560.82 77.2812 1561.92 77.2812C1562.86 77.2812 1563.58 77.5566 1564.08 78.1074C1564.58 78.6523 1564.83 79.4814 1564.83 80.5947V86H1563.27V80.6299C1563.27 79.8857 1563.12 79.3525 1562.83 79.0303C1562.54 78.708 1562.08 78.5469 1561.46 78.5469C1561.01 78.5469 1560.62 78.6523 1560.27 78.8633C1559.93 79.0742 1559.65 79.373 1559.44 79.7598V86H1557.88V77.4395ZM1568.3 81.9043C1568.3 82.8242 1568.47 83.5508 1568.81 84.084C1569.18 84.6699 1569.76 84.9629 1570.57 84.9629C1571.1 84.9629 1571.56 84.8018 1571.94 84.4795C1572.33 84.1572 1572.52 83.7676 1572.52 83.3105H1573.92L1573.94 83.3633C1573.97 84.1074 1573.64 84.7637 1572.96 85.332C1572.28 85.9004 1571.49 86.1846 1570.57 86.1846C1569.35 86.1846 1568.41 85.7891 1567.73 84.998C1567.06 84.207 1566.72 83.1758 1566.72 81.9043V81.5703C1566.72 80.3047 1567.06 79.2764 1567.73 78.4854C1568.41 77.6943 1569.36 77.2988 1570.57 77.2988C1571.57 77.2988 1572.39 77.5918 1573.03 78.1777C1573.66 78.7637 1573.97 79.4932 1573.95 80.3662L1573.93 80.4102H1572.52C1572.52 79.8828 1572.34 79.4375 1571.97 79.0742C1571.6 78.7109 1571.14 78.5293 1570.59 78.5293C1570.05 78.5293 1569.6 78.667 1569.25 78.9424C1568.9 79.2178 1568.65 79.5752 1568.51 80.0146C1568.37 80.4541 1568.3 80.9727 1568.3 81.5703V81.9043ZM1580.94 80.6826C1580.94 80.0381 1580.77 79.5195 1580.43 79.127C1580.1 78.7285 1579.62 78.5293 1578.99 78.5293C1578.48 78.5293 1578.03 78.7461 1577.66 79.1797C1577.29 79.6133 1577.06 80.167 1576.97 80.8408L1576.99 80.8848H1580.94V80.6826ZM1579.23 86.1846C1578.04 86.1846 1577.09 85.792 1576.38 85.0068C1575.68 84.2217 1575.33 83.1875 1575.33 81.9043V81.5527C1575.33 80.3516 1575.69 79.3438 1576.4 78.5293C1577.12 77.709 1577.99 77.2988 1578.99 77.2988C1580.13 77.2988 1581 77.6416 1581.59 78.3271C1582.2 79.0068 1582.5 79.9414 1582.5 81.1309V82.1064H1576.95L1576.92 82.1416C1576.94 82.9854 1577.15 83.668 1577.55 84.1895C1577.96 84.7051 1578.52 84.9629 1579.23 84.9629C1580.23 84.9629 1581.04 84.6816 1581.66 84.1191L1582.27 85.1299H1582.26C1581.55 85.833 1580.54 86.1846 1579.23 86.1846Z" fill="black"/>
<g clip-path="url(#clip0_25_2)">
<path d="M5.69873 46.6597H131.831" stroke="#808080" stroke-miterlimit="10"/>
<path d="M131.673 46.6597H257.806" stroke="#808080" stroke-miterlimit="10"/>
<path d="M1427.58 46.6597H1587" stroke="#ADADAD" stroke-miterlimit="10"/>
<path d="M1592.3 46.6597H1655" stroke="#ADADAD" stroke-width="2" stroke-linejoin="round" stroke-dasharray="2 6"/>
<path d="M257.784 42.5793C262.117 42.5793 262.117 46.5087 266.45 46.5087C270.784 46.5087 270.784 42.5793 275.117 42.5793C279.451 42.5793 279.451 46.5087 283.784 46.5087C288.117 46.5087 288.117 42.5793 292.451 42.5793C296.784 42.5793 296.784 46.5087 301.117 46.5087C305.451 46.5087 305.451 42.5793 309.784 42.5793C314.117 42.5793 314.117 46.5087 318.451 46.5087C322.784 46.5087 322.784 42.5793 327.118 42.5793C331.451 42.5793 331.451 46.5087 335.784 46.5087C340.118 46.5087 340.118 42.5793 344.451 42.5793C348.784 42.5793 348.784 46.5087 353.118 46.5087C357.451 46.5087 357.451 42.5793 361.784 42.5793C366.118 42.5793 366.118 46.5087 370.451 46.5087C374.785 46.5087 374.785 42.5793 379.118 42.5793C383.451 42.5793 383.451 46.5087 387.785 46.5087C392.118 46.5087 392.118 42.5793 396.461 42.5793C400.805 42.5793 400.795 46.5087 405.128 46.5087C409.461 46.5087 409.461 42.5793 413.795 42.5793C418.128 42.5793 418.128 46.5087 422.462 46.5087C426.795 46.5087 426.795 42.5793 431.128 42.5793C435.462 42.5793 435.462 46.5087 439.805 46.5087C444.148 46.5087 444.138 42.5793 448.482 42.5793C452.825 42.5793 452.815 46.5087 457.158 46.5087C461.501 46.5087 461.501 42.5793 465.835 42.5793C470.168 42.5793 470.178 46.5087 474.511 46.5087" stroke="#FFD200" stroke-miterlimit="10"/>
<path d="M839.556 42.8088C843.958 42.8088 843.958 46.7382 848.361 46.7382C852.763 46.7382 852.764 42.8088 857.166 42.8088C861.569 42.8088 861.569 46.7382 865.971 46.7382C870.374 46.7382 870.374 42.8088 874.777 42.8088C879.179 42.8088 879.179 46.7382 883.582 46.7382C887.985 46.7382 887.984 42.8088 892.387 42.8088C896.79 42.8088 896.79 46.7382 901.192 46.7382C905.595 46.7382 905.595 42.8088 909.988 42.8088C914.38 42.8088 914.39 46.7382 918.793 46.7382C923.196 46.7382 923.196 42.8088 927.588 42.8088C931.981 42.8088 931.991 46.7382 936.394 46.7382C940.796 46.7382 940.796 42.8088 945.199 42.8088C949.601 42.8088 949.601 46.7382 954.004 46.7382C958.407 46.7382 958.407 42.8088 962.809 42.8088C967.212 42.8088 967.212 46.7382 971.615 46.7382C976.017 46.7382 976.017 42.8088 980.42 42.8088C984.822 42.8088 984.822 46.7382 989.225 46.7382C993.628 46.7382 993.628 42.8088 998.03 42.8088C1002.43 42.8088 1002.43 46.7382 1006.84 46.7382C1011.24 46.7382 1011.24 42.8088 1015.64 42.8088C1020.04 42.8088 1020.04 46.7382 1024.45 46.7382C1028.85 46.7382 1028.85 42.8088 1033.25 42.8088C1037.65 42.8088 1037.65 46.7382 1042.06 46.7382C1046.46 46.7382 1046.46 42.8088 1050.86 42.8088C1055.26 42.8088 1055.26 46.7382 1059.67 46.7382C1064.07 46.7382 1064.07 42.8088 1068.47 42.8088C1072.87 42.8088 1072.87 46.7382 1077.28 46.7382C1081.68 46.7382 1081.68 42.8088 1086.08 42.8088C1090.49 42.8088 1090.49 46.7382 1094.89 46.7382C1099.29 46.7382 1099.29 42.8088 1103.7 42.8088C1108.12 42.8088 1108.11 46.7382 1112.52 46.7382" stroke="#808080" stroke-miterlimit="10"/>
<path d="M486.277 46.6597H612.41" stroke="#808080" stroke-miterlimit="10"/>
<path d="M621.156 46.6597H836.389" stroke="#FFD200" stroke-miterlimit="10"/>
<path d="M1122.86 46.6597H1248.99" stroke="#808080" stroke-miterlimit="10"/>
<path d="M1260.87 46.6597H1387" stroke="#808080" stroke-miterlimit="10"/>
<path d="M1396.91 46.6597H1421.78" stroke="#808080" stroke-miterlimit="10"/>
<path d="M-0.00248539 46.6819L6.92334 53.5587L13.8492 46.6819L6.92334 39.8051L-0.00248539 46.6819Z" fill="#1F1521"/>
<path d="M123.668 46.6836L130.594 53.5604L137.52 46.6836L130.594 39.8068L123.668 46.6836Z" fill="#1F1521"/>
<path d="M608.868 46.6842L615.793 53.561L622.719 46.6842L615.793 39.8074L608.868 46.6842Z" fill="#1F1521"/>
<path d="M832.843 46.6893L839.769 53.5662L846.694 46.6894L839.769 39.8125L832.843 46.6893Z" fill="#141414"/>
<path d="M1110.28 46.6825L1117.21 53.5593L1124.13 46.6825L1117.21 39.8057L1110.28 46.6825Z" fill="#1F1521"/>
<path d="M1248.29 46.691L1255.22 53.5679L1262.15 46.6911L1255.22 39.8142L1248.29 46.691Z" fill="#1F1521"/>
<path d="M1384.33 46.684L1391.26 53.5608L1398.18 46.684L1391.26 39.8072L1384.33 46.684Z" fill="#1F1521"/>
<path d="M1415.99 46.6865L1422.92 53.5634L1429.85 46.6865L1422.92 39.8097L1415.99 46.6865Z" fill="#1F1521"/>
<path d="M16.6313 24.2424C48.6963 -7.59559 217.47 -4.24578 249.644 27.6708L251.148 29.1836" stroke="#666666" stroke-width="2" stroke-linejoin="round" stroke-dasharray="2 6"/>
<path d="M15.8592 31.9735H7.6377V23.8102" stroke="#666666" stroke-miterlimit="10"/>
<path d="M474.803 46.6774L481.729 53.5542L488.655 46.6774L481.729 39.8006L474.803 46.6774Z" fill="#141414" stroke="#7B7B7B" stroke-miterlimit="10"/>
<path d="M607.908 46.6806L601.691 52.8528L595.475 46.6805L601.691 40.5083L607.908 46.6806Z" fill="#1F1521" stroke="#7B7B7B"/>
<path d="M712.826 46.6815L719.752 53.5583L726.678 46.6815L719.752 39.8047L712.826 46.6815Z" fill="#141414" stroke="#7B7B7B" stroke-miterlimit="10"/>
<path d="M819.019 46.6876L825.945 53.5645L832.871 46.6876L825.945 39.8108L819.019 46.6876Z" fill="#141414" stroke="#7B7B7B" stroke-miterlimit="10"/>
<path d="M488.414 46.6845L495.34 53.5613L502.266 46.6845L495.34 39.8077L488.414 46.6845Z" fill="#FFD200"/>
<path d="M254.265 46.6854L261.19 53.5623L268.116 46.6855L261.19 39.8086L254.265 46.6854Z" fill="#FFD200"/>
</g>
<defs>
<clipPath id="clip0_25_2">
<rect width="1655" height="59" fill="white" transform="translate(0 1)"/>
</clipPath>
</defs>
</svg>
